<svg id="color" enable-background="new 0 0 256 256" height="512" viewBox="0 0 256 256" width="512" xmlns="http://www.w3.org/2000/svg"><g><g><g><g><g><g><path d="m200.0274 93.3383c-2.0306-.364-3.9635-1.3683-5.4707-3.0005l-38.063-29.6754c-3.6776-3.9816-3.4313-10.1906.5506-13.8681 3.9818-3.6778 10.1915-3.4306 13.8681.5505l35.4658 44.1655c3.6776 3.9816 4.297 5.3606.3152 9.0381-2.3495 2.1701-3.7434-6.6863-6.666-7.2101z" fill="#b2b2b2"/></g></g></g><g><g><g><path d="m195.6559 95.2531c-2.0629 0-4.1427-.6477-5.9143-1.9882l-42.7014-22.4946c-4.3224-3.2703-5.1754-9.4254-1.9048-13.7477 3.2705-4.3226 9.4263-5.1748 13.7477-1.9048l42.7015 37.2156c4.3223 3.2703 5.1753 4.5184 1.9048 8.8408-1.9297 2.5504-4.8644-5.9211-7.8335-5.9211z" fill="#c6c6c6"/></g></g></g><g><g><path d="m105.0481 112.4659-19.3818-15.6682c-5.7786-3.9989-13.3398 1.6011-11.1994 8.2944l8.9811 20.851z" fill="#c6c6c6"/></g></g><g><g><path d="m204.2681 131.6992c13.3679-1.1127 31.8509-13.563 30.7383-26.9309-1.1127-13.3679-21.3997-22.5912-34.7677-21.4786-10.5222.8758-18.9131 8.3367-21.468 17.992l-25.6185-.47-42.9155-.7874.0029.0279c-.3679-.0138-.7357-.0279-1.107-.0279-16.0563 0-29.0724 13.0162-29.0724 29.0725 0 4.7544 1.1486 9.2379 3.1721 13.2002l-10.7094 5.5083-9.6454 4.961c-1.0495.5064-20.1692 13.0315-20.1692 13.0315-3.7181 3.9436-3.5356 10.1547.4078 13.873 1.8962 1.7877 4.3157 2.6735 6.7308 2.6735 2.6088 0 5.2118-1.0339 7.1425-3.0815l20.0586-13.6518 41.8293-3.2483 37.0702-17.4662 38.7626 20.4782c1.462.7722 3.0304 1.1383 4.5763 1.1383 3.5217 0 6.9264-1.9012 8.6855-5.2317 2.5321-4.7925.6996-10.73-4.0928-13.2619l-21.6016-11.4121 13.3369-5.6708-.0141-.0808c2.7391.7809 5.6614 1.0937 8.6678.8435z" fill="#e1e3e5"/></g></g></g></g><g><g><g><g><path d="m28.646 71.506h8.682v5.5h-8.682z" fill="#3fa2b7"/></g></g><g><g><path d="m59.3 71.506h53.66v5.5h-53.66z" fill="#3fa2b7"/></g></g><g><g><path d="m43.934 71.506h8.682v5.5h-8.682z" fill="#3fa2b7"/></g></g></g><g><g><path d="m35.067 52.223h53.66v5.5h-53.66z" fill="#177ca0"/></g><g><path d="m19.7 52.223h8.681v5.5h-8.681z" fill="#177ca0"/></g></g></g><g><g><g><g><path d="m87.63 185.727h8.681v5.5h-8.681z" fill="#177ca0"/></g></g><g><path d="m118.284 185.727h53.66v5.5h-53.66z" fill="#177ca0"/></g><g><path d="m102.918 185.727h8.681v5.5h-8.681z" fill="#177ca0"/></g></g><g><g><g><path d="m44.747 205.01h8.681v5.5h-8.681z" fill="#3fa2b7"/></g></g><g><g><path d="m75.401 205.01h53.661v5.5h-53.661z" fill="#3fa2b7"/></g></g><g><g><path d="m60.035 205.01h8.681v5.5h-8.681z" fill="#3fa2b7"/></g></g></g></g></g></svg>