<svg id="Capa_1" enable-background="new 0 0 512 512" viewBox="0 0 512 512" xmlns="http://www.w3.org/2000/svg"><g><g><g><path d="m473.742 149.89v281.927h-435.484v-281.927c0-8.211 6.655-14.855 14.855-14.855h405.773c8.201 0 14.856 6.645 14.856 14.855z" fill="#dcf5f8"/><path d="m458.887 135.035h-35.042c8.2 0 14.855 6.645 14.855 14.855v281.927h35.042v-281.927c0-8.21-6.655-14.855-14.855-14.855z" fill="#c8effe"/></g><path d="m17.058 411.118h209.172l29.77 8.981 29.77-8.981h209.172c9.421 0 17.058 7.637 17.058 17.058 0 26.388-21.392 47.78-47.78 47.78h-416.44c-26.388 0-47.78-21.392-47.78-47.78 0-9.421 7.637-17.058 17.058-17.058z" fill="#8d9ca8"/><path d="m494.942 411.118h-35.042c9.421 0 17.058 7.637 17.058 17.058 0 26.388-21.392 47.78-47.78 47.78h35.042c26.388 0 47.78-21.392 47.78-47.78 0-9.421-7.637-17.058-17.058-17.058z" fill="#7a8c98"/><path d="m274.188 443.537h-36.376c-6.396 0-11.582-5.185-11.582-11.582v-20.837h59.54v20.837c0 6.397-5.185 11.582-11.582 11.582z" fill="#9facba"/></g><g><g><path d="m154.338 364.61h-24.88c-4.267 0-7.726-3.459-7.726-7.726s3.459-7.726 7.726-7.726h24.88c3.517 0 6.377-2.861 6.377-6.377v-127.654c0-4.267 3.459-7.726 7.726-7.726s7.726 3.459 7.726 7.726v127.653c.001 12.037-9.792 21.83-21.829 21.83z" fill="#6c7fd8"/></g><g><path d="m224.119 347.095c-4.267 0-7.726-3.459-7.726-7.726v-124.242c0-4.267 3.459-7.726 7.726-7.726s7.726 3.459 7.726 7.726v124.242c.001 4.267-3.459 7.726-7.726 7.726z" fill="#6c7fd8"/></g><g><path d="m291.41 347.095c-4.268 0-7.726-3.459-7.726-7.726v-124.242c0-4.267 3.459-7.726 7.726-7.726s7.726 3.459 7.726 7.726v124.242c.001 4.267-3.458 7.726-7.726 7.726z" fill="#6c7fd8"/></g><g><path d="m382.542 311.246h-24.267c-12.037 0-21.83-9.793-21.83-21.83v-74.289c0-4.267 3.459-7.726 7.726-7.726s7.726 3.459 7.726 7.726v74.289c0 3.517 2.861 6.377 6.377 6.377h24.267c4.268 0 7.726 3.459 7.726 7.726.002 4.268-3.457 7.727-7.725 7.727z" fill="#6c7fd8"/></g></g><g><path d="m408.872 169.586c.206 25.054-13.213 45.544-68.181 45.544h-202.915c-34.985 0-63.171-29.082-61.718-64.386 1.308-31.658 26.867-57.464 58.504-59.071 7.201-.371 14.144.505 20.645 2.421 3.204.948 6.593-.598 7.902-3.657 1.236-2.895 2.617-5.707 4.141-8.437 11.394-20.428 30.566-35.922 53.497-42.495 7.86-2.256 16.153-3.461 24.735-3.461 25.167 0 47.914 10.374 64.18 27.094 2.215 2.277 5.511 3.08 8.581 2.215 36.303-10.807 74.585 15.824 78.273 52.663-19.274 21.829 12.192 31.173 12.356 51.57z" fill="#62dbfb"/></g><g><circle cx="111.943" cy="356.884" fill="#01d0fb" r="17.515"/><circle cx="224.119" cy="356.884" fill="#62dbfb" r="17.515"/><circle cx="291.411" cy="356.884" fill="#01d0fb" r="17.515"/><circle cx="400.057" cy="303.52" fill="#62dbfb" r="17.515"/></g><g fill="#01d0fb"><path d="m199.979 140.071c-4.172.855-8.262-1.834-9.117-6.016-3.935-19.233-17.729-33.975-35.655-39.961 3.204.948 6.593-.598 7.902-3.657 1.236-2.895 2.617-5.707 4.141-8.437 19.429 9.097 34.243 26.96 38.745 48.954.855 4.183-1.834 8.262-6.016 9.117z"/><path d="m435.993 169.586c.206 25.054-20.944 45.544-45.987 45.544h-49.315c25.013 0 45.699-20.058 45.843-45.07.082-14.649-3.853-24.117-9.292-30.215-4.883-5.47-13.763-4.852-17.884 1.205-.021.031-.052.062-.072.103-2.545 3.781-7.86 4.574-11.435 1.535-3.06-2.606-3.43-7.191-1.154-10.508.021-.031.041-.062.062-.093 1.988-2.864 1.834-6.614-.206-9.436-1.205-1.659-2.112-3.544-2.658-5.604-4.76-18.152-18.749-50.417-58.329-54.012-4.121-.371-8.18.412-12.084 1.185-6.119 1.226-12.455-.525-17.049-4.739-10.065-9.189-22.221-16.122-35.685-19.975 7.86-2.256 16.153-3.461 24.735-3.461 25.167 0 47.914 10.374 64.18 27.094 2.215 2.277 5.511 3.08 8.581 2.215 36.303-10.807 74.585 15.824 78.273 52.663.391 4.007 3.07 7.469 6.933 8.592 18.687 5.417 32.378 22.58 32.543 42.977z"/></g></g><g/><g/><g/><g/><g/><g/><g/><g/><g/><g/><g/><g/><g/><g/><g/></svg>