<svg id="Layer_1" enable-background="new 0 0 512 512" height="512" viewBox="0 0 512 512" width="512" xmlns="http://www.w3.org/2000/svg"><g><g fill="#7295ce"><path d="m27.705 243.491c.221.019.439.028.656.028 3.85 0 7.125-2.947 7.463-6.853 3.927-45.328 21.502-87.75 50.826-122.681 2.663-3.172 2.251-7.903-.922-10.566-3.171-2.663-7.901-2.25-10.566.922-31.317 37.305-50.088 82.615-54.281 131.03-.358 4.127 2.698 7.762 6.824 8.12z"/><path d="m35.824 275.333c-.356-4.126-3.996-7.178-8.119-6.825-4.126.357-7.182 3.993-6.824 8.12 4.193 48.417 22.964 93.727 54.282 131.031 1.483 1.767 3.608 2.678 5.748 2.678 1.702 0 3.413-.576 4.818-1.756 3.173-2.663 3.585-7.394.922-10.566-29.325-34.931-46.9-77.353-50.827-122.682z"/><path d="m236.666 476.175c-45.329-3.926-87.751-21.502-122.682-50.827-3.171-2.663-7.902-2.25-10.566.922-2.663 3.172-2.251 7.903.922 10.566 37.305 31.318 82.614 50.089 131.031 54.283.221.019.439.028.656.028 3.85 0 7.125-2.947 7.463-6.853.358-4.126-2.697-7.761-6.824-8.119z"/><path d="m398.015 425.349c-34.931 29.325-77.353 46.9-122.681 50.826-4.126.357-7.182 3.993-6.824 8.12.338 3.907 3.613 6.853 7.463 6.853.217 0 .437-.009.656-.028 48.416-4.194 93.726-22.964 131.03-54.282 3.173-2.663 3.585-7.394.922-10.566s-7.393-3.585-10.566-.923z"/><path d="m484.295 268.509c-4.138-.354-7.763 2.699-8.119 6.825-3.927 45.328-21.502 87.75-50.826 122.681-2.663 3.172-2.251 7.903.922 10.566 1.405 1.18 3.116 1.756 4.818 1.756 2.14 0 4.265-.911 5.748-2.678 31.317-37.305 50.088-82.615 54.281-131.03.358-4.128-2.698-7.763-6.824-8.12z"/><path d="m476.176 236.667c.338 3.907 3.613 6.853 7.463 6.853.217 0 .437-.009.656-.028 4.126-.357 7.182-3.993 6.824-8.12-4.193-48.416-22.964-93.725-54.281-131.03-2.663-3.172-7.394-3.584-10.566-.922-3.173 2.663-3.585 7.394-.922 10.566 29.324 34.931 46.899 77.353 50.826 122.681z"/><path d="m407.659 75.162c-37.305-31.317-82.615-50.088-131.031-54.282-4.139-.36-7.763 2.698-8.119 6.825-.357 4.127 2.698 7.762 6.824 8.12 45.328 3.926 87.751 21.501 122.682 50.826 1.405 1.18 3.116 1.756 4.818 1.756 2.14 0 4.265-.911 5.748-2.678 2.663-3.173 2.251-7.904-.922-10.567z"/><path d="m235.372 20.88c-48.416 4.194-93.727 22.964-131.031 54.282-3.173 2.663-3.585 7.394-.922 10.566 1.483 1.767 3.608 2.678 5.748 2.678 1.702 0 3.413-.576 4.818-1.756 34.931-29.324 77.354-46.9 122.682-50.826 4.126-.357 7.182-3.993 6.824-8.12-.356-4.125-4.001-7.178-8.119-6.824z"/></g><g fill="#c2e1ff"><path d="m417.59 390.084h-.007c-7.344.002-14.248 2.863-19.442 8.057-10.722 10.722-10.725 28.166-.007 38.885 5.191 5.191 12.094 8.05 19.437 8.05h.007c7.344-.001 14.248-2.863 19.442-8.057 5.193-5.194 8.055-12.099 8.057-19.442.002-7.346-2.857-14.25-8.05-19.443-5.192-5.191-12.093-8.05-19.437-8.05z"/><path d="m94.43 66.924h-.007c-7.344.002-14.248 2.863-19.442 8.057-5.193 5.193-8.055 12.098-8.057 19.442-.002 7.345 2.857 14.25 8.05 19.443 5.191 5.191 12.094 8.05 19.437 8.05h.007c7.344-.001 14.248-2.863 19.442-8.057 10.722-10.723 10.725-28.167.007-38.885-5.192-5.192-12.094-8.05-19.437-8.05z"/><path d="m417.577 66.924h-.007c-7.343 0-14.245 2.859-19.437 8.05-5.192 5.192-8.051 12.098-8.049 19.443.001 7.344 2.862 14.249 8.056 19.442 5.194 5.194 12.099 8.055 19.442 8.057h.007c7.343 0 14.245-2.859 19.436-8.049 5.193-5.193 8.053-12.098 8.051-19.443-.002-7.344-2.863-14.249-8.057-19.442-5.194-5.195-12.098-8.056-19.442-8.058z"/><path d="m94.417 390.084h-.007c-7.342 0-14.245 2.859-19.436 8.049-5.193 5.193-8.053 12.098-8.051 19.444.002 7.343 2.863 14.248 8.057 19.442 5.363 5.363 12.406 8.044 19.449 8.044 7.039 0 14.078-2.679 19.437-8.037 10.718-10.719 10.715-28.163-.007-38.885-5.194-5.194-12.098-8.055-19.442-8.057z"/><path d="m484.509 228.5c-15.159 0-27.491 12.337-27.491 27.5 0 15.164 12.332 27.501 27.491 27.501s27.491-12.337 27.491-27.501-12.332-27.5-27.491-27.5z"/><path d="m27.491 228.5c-15.159 0-27.491 12.336-27.491 27.5s12.332 27.501 27.491 27.501 27.491-12.337 27.491-27.501-12.332-27.5-27.491-27.5z"/><ellipse cx="256" cy="27.491" rx="27.501" ry="27.491"/><path d="m256 457.018c-15.164 0-27.501 12.333-27.501 27.491s12.337 27.491 27.501 27.491 27.501-12.333 27.501-27.491-12.337-27.491-27.501-27.491z"/></g><path d="m373.12 255.995 9.98 45.77c-2.2 47.3-7.14 75.11-7.41 76.59-.54 3-2.85 5.37-5.83 6-.69.14-7.46 1.54-19.53 3.2-19.16 2.64-51.66 5.94-94.33 5.94-69.56 0-112.08-8.77-113.86-9.14-2.98-.63-5.29-3-5.83-6-.27-1.48-5.21-29.29-7.41-76.59l9.98-45.76-10.01-45.16c2.19-47.67 7.17-75.71 7.44-77.2.54-3 2.85-5.37 5.83-6 1.78-.37 44.3-9.15 113.86-9.15 42.97 0 75.62 3.35 94.73 6 11.82 1.64 18.45 3 19.13 3.15 2.98.63 5.29 3 5.83 6 .27 1.49 5.25 29.53 7.44 77.2z" fill="#485f96"/><path d="m373.12 255.995 9.98 45.77c-2.2 47.3-7.14 75.11-7.41 76.59-.54 3-2.85 5.37-5.83 6-.69.14-7.46 1.54-19.53 3.2 13.93-122.05 3.31-236.1.4-263.06 11.82 1.64 18.45 3 19.13 3.15 2.98.63 5.29 3 5.83 6 .27 1.49 5.25 29.53 7.44 77.2z" fill="#30446d"/><path d="m356.44 207.675c-23.33-2.33-57.67-4.7-100.44-4.7-64.46 0-109.75 5.39-127.13 7.87-.62 13.52-1.02 28.62-1.02 45.15 0 16.78.41 32.09 1.05 45.77 17.4-2.48 62.68-7.87 127.1-7.87 42.92 0 77.35 2.39 100.69 4.72l27.46-42.62z" fill="#7295ce"/><g><path d="m165.003 252.313c.396 3.86 3.654 6.734 7.452 6.734.256 0 .515-.013.775-.04 26.014-2.671 53.84-4.026 82.704-4.026 4.143 0 7.5-3.358 7.5-7.5s-3.357-7.5-7.5-7.5c-29.374 0-57.716 1.381-84.237 4.104-4.12.425-7.117 4.108-6.694 8.228z" fill="#485f96"/><g fill="#c2e1ff"><circle cx="304.283" cy="248.548" r="7.5"/><circle cx="336.283" cy="251.548" r="7.5"/></g></g><g><path d="m165.003 339.313c.396 3.86 3.654 6.734 7.452 6.734.256 0 .515-.013.775-.04 26.014-2.671 53.84-4.026 82.704-4.026 4.143 0 7.5-3.358 7.5-7.5s-3.357-7.5-7.5-7.5c-29.374 0-57.716 1.381-84.237 4.104-4.12.425-7.117 4.108-6.694 8.228z" fill="#30446d"/><g fill="#c2e1ff"><circle cx="304.283" cy="335.548" r="7.5"/><circle cx="336.283" cy="338.548" r="7.5"/></g></g><g><path d="m165.003 167.313c.396 3.86 3.654 6.734 7.452 6.734.256 0 .515-.013.775-.04 26.014-2.671 53.84-4.026 82.704-4.026 4.143 0 7.5-3.358 7.5-7.5s-3.357-7.5-7.5-7.5c-29.374 0-57.716 1.381-84.237 4.104-4.12.425-7.117 4.108-6.694 8.228z" fill="#30446d"/><g fill="#c2e1ff"><circle cx="304.283" cy="163.548" r="7.5"/><circle cx="336.283" cy="166.548" r="7.5"/></g></g><path d="m384.15 255.995c0 16.78-.41 32.09-1.05 45.77-5.81-.83-14.72-1.98-26.41-3.15 1.08-33.43.72-64.42-.25-90.94 11.84 1.17 20.84 2.34 26.69 3.17.62 13.52 1.02 28.62 1.02 45.15z" fill="#485f96"/></g></svg>