<?xml version="1.0" encoding="UTF-8" standalone="no"?>
<svg
   id="Capa_1"
   enable-background="new 0 0 512 512"
   viewBox="0 0 512 512"
   version="1.1"
   sodipodi:docname="database-v2.svg"
   inkscape:version="1.2 (dc2aeda, 2022-05-15)"
   xmlns:inkscape="http://www.inkscape.org/namespaces/inkscape"
   xmlns:sodipodi="http://sodipodi.sourceforge.net/DTD/sodipodi-0.dtd"
   xmlns="http://www.w3.org/2000/svg"
   xmlns:svg="http://www.w3.org/2000/svg">
  <defs
     id="defs3951" />
  <sodipodi:namedview
     id="namedview3949"
     pagecolor="#ffffff"
     bordercolor="#000000"
     borderopacity="0.25"
     inkscape:showpageshadow="2"
     inkscape:pageopacity="0.0"
     inkscape:pagecheckerboard="0"
     inkscape:deskcolor="#d1d1d1"
     showgrid="false"
     inkscape:zoom="1.6582031"
     inkscape:cx="256"
     inkscape:cy="256"
     inkscape:window-width="1869"
     inkscape:window-height="1027"
     inkscape:window-x="51"
     inkscape:window-y="25"
     inkscape:window-maximized="1"
     inkscape:current-layer="Capa_1" />
  <g
     id="g3916"
     style="display:inline">
    <path
       d="m 80.869,285.165 h 350.262 v 54.82 H 80.869 Z"
       fill="#687daa"
       id="path3840" />
    <path
       d="m 80.869,120.605 h 350.262 v 54.82 H 80.869 Z"
       fill="#687daa"
       id="path3842" />
    <g
       id="g3866">
      <g
         id="g3848">
        <path
           d="m 474.913,30.905 v 69.022 c 0,17.07 -13.835,30.905 -30.905,30.905 H 282.146 C 194.338,108.218 162.566,63.922 197.166,0 h 246.842 c 17.07,0 30.905,13.835 30.905,30.905 z"
           fill="#b2aee4"
           id="path3844" />
        <path
           d="M 282.146,130.833 H 67.992 c -17.069,0 -30.905,-13.837 -30.905,-30.905 V 30.905 C 37.087,13.837 50.923,0 67.992,0 H 197.17 c -5.44,64.424 23.463,108.679 84.976,130.833 z"
           fill="#a29cde"
           id="path3846" />
      </g>
      <path
         d="m 433.706,97.352 c -4.268,0 -7.726,-3.459 -7.726,-7.726 V 41.207 c 0,-4.268 3.459,-7.726 7.726,-7.726 4.267,0 7.726,3.459 7.726,7.726 v 48.419 c 10e-4,4.267 -3.458,7.726 -7.726,7.726 z"
         fill="#a4e7ff"
         id="path3850" />
      <circle
         cx="98.897003"
         cy="65.416"
         fill="#73da8c"
         r="20.604"
         id="circle3852" />
      <g
         fill="#a4e7ff"
         id="g3860">
        <path
           d="m 397.65,97.352 c -4.268,0 -7.726,-3.459 -7.726,-7.726 V 41.207 c 0,-4.268 3.459,-7.726 7.726,-7.726 4.267,0 7.726,3.459 7.726,7.726 v 48.419 c 0,4.267 -3.458,7.726 -7.726,7.726 z"
           id="path3854" />
        <path
           d="m 361.594,97.352 c -4.268,0 -7.726,-3.459 -7.726,-7.726 V 41.207 c 0,-4.268 3.459,-7.726 7.726,-7.726 4.267,0 7.726,3.459 7.726,7.726 v 48.419 c 0,4.267 -3.459,7.726 -7.726,7.726 z"
           id="path3856" />
        <path
           d="m 325.537,97.352 c -4.268,0 -7.726,-3.459 -7.726,-7.726 V 41.207 c 0,-4.268 3.459,-7.726 7.726,-7.726 4.267,0 7.726,3.459 7.726,7.726 v 48.419 c 0.001,4.267 -3.458,7.726 -7.726,7.726 z"
           id="path3858" />
      </g>
      <circle
         cx="171.00999"
         cy="65.416"
         fill="#ff83b4"
         r="20.604"
         id="circle3862" />
      <circle
         cx="243.123"
         cy="65.416"
         fill="#f9ee80"
         r="20.604"
         id="circle3864" />
    </g>
    <g
       id="g3890">
      <g
         id="g3872">
        <path
           d="m 474.913,195.734 v 69.022 c 0,17.07 -13.835,30.905 -30.905,30.905 H 282.146 C 194.338,273.046 162.566,228.75 197.166,164.828 h 246.842 c 17.07,0.001 30.905,13.836 30.905,30.906 z"
           fill="#b2aee4"
           id="path3868" />
        <path
           d="M 282.146,295.662 H 67.992 c -17.069,0 -30.905,-13.837 -30.905,-30.905 v -69.022 c 0,-17.069 13.837,-30.905 30.905,-30.905 H 197.17 c -5.44,64.423 23.463,108.678 84.976,130.832 z"
           fill="#a29cde"
           id="path3870" />
      </g>
      <path
         d="m 433.706,262.181 c -4.268,0 -7.726,-3.459 -7.726,-7.726 v -48.419 c 0,-4.268 3.459,-7.726 7.726,-7.726 4.267,0 7.726,3.459 7.726,7.726 v 48.419 c 10e-4,4.267 -3.458,7.726 -7.726,7.726 z"
         fill="#a4e7ff"
         id="path3874" />
      <circle
         cx="98.897003"
         cy="230.245"
         fill="#73da8c"
         r="20.604"
         id="circle3876" />
      <g
         fill="#a4e7ff"
         id="g3884">
        <path
           d="m 397.65,262.181 c -4.268,0 -7.726,-3.459 -7.726,-7.726 v -48.419 c 0,-4.268 3.459,-7.726 7.726,-7.726 4.267,0 7.726,3.459 7.726,7.726 v 48.419 c 0,4.267 -3.458,7.726 -7.726,7.726 z"
           id="path3878" />
        <path
           d="m 361.594,262.181 c -4.268,0 -7.726,-3.459 -7.726,-7.726 v -48.419 c 0,-4.268 3.459,-7.726 7.726,-7.726 4.267,0 7.726,3.459 7.726,7.726 v 48.419 c 0,4.267 -3.459,7.726 -7.726,7.726 z"
           id="path3880" />
        <path
           d="m 325.537,262.181 c -4.268,0 -7.726,-3.459 -7.726,-7.726 v -48.419 c 0,-4.268 3.459,-7.726 7.726,-7.726 4.267,0 7.726,3.459 7.726,7.726 v 48.419 c 0.001,4.267 -3.458,7.726 -7.726,7.726 z"
           id="path3882" />
      </g>
      <circle
         cx="171.00999"
         cy="230.245"
         fill="#ff83b4"
         r="20.604"
         id="circle3886" />
      <circle
         cx="243.123"
         cy="230.245"
         fill="#f9ee80"
         r="20.604"
         id="circle3888" />
    </g>
    <g
       id="g3914">
      <g
         id="g3896">
        <path
           d="m 474.913,360.563 v 69.022 c 0,17.07 -13.835,30.905 -30.905,30.905 H 282.146 c -87.808,-22.615 -119.58,-66.911 -84.98,-130.833 h 246.842 c 17.07,0.001 30.905,13.836 30.905,30.906 z"
           fill="#b2aee4"
           id="path3892" />
        <path
           d="M 282.146,460.491 H 67.992 c -17.069,0 -30.905,-13.837 -30.905,-30.905 v -69.022 c 0,-17.069 13.837,-30.905 30.905,-30.905 H 197.17 c -5.44,64.423 23.463,108.678 84.976,130.832 z"
           fill="#a29cde"
           id="path3894" />
      </g>
      <path
         d="m 433.706,427.01 c -4.268,0 -7.726,-3.459 -7.726,-7.726 v -48.418 c 0,-4.268 3.459,-7.726 7.726,-7.726 4.267,0 7.726,3.459 7.726,7.726 v 48.418 c 10e-4,4.267 -3.458,7.726 -7.726,7.726 z"
         fill="#a4e7ff"
         id="path3898" />
      <circle
         cx="98.897003"
         cy="395.07401"
         fill="#73da8c"
         r="20.604"
         id="circle3900" />
      <g
         fill="#a4e7ff"
         id="g3908">
        <path
           d="m 397.65,427.01 c -4.268,0 -7.726,-3.459 -7.726,-7.726 v -48.418 c 0,-4.268 3.459,-7.726 7.726,-7.726 4.267,0 7.726,3.459 7.726,7.726 v 48.418 c 0,4.267 -3.458,7.726 -7.726,7.726 z"
           id="path3902" />
        <path
           d="m 361.594,427.01 c -4.268,0 -7.726,-3.459 -7.726,-7.726 v -48.418 c 0,-4.268 3.459,-7.726 7.726,-7.726 4.267,0 7.726,3.459 7.726,7.726 v 48.418 c 0,4.267 -3.459,7.726 -7.726,7.726 z"
           id="path3904" />
        <path
           d="m 325.537,427.01 c -4.268,0 -7.726,-3.459 -7.726,-7.726 v -48.418 c 0,-4.268 3.459,-7.726 7.726,-7.726 4.267,0 7.726,3.459 7.726,7.726 v 48.418 c 0.001,4.267 -3.458,7.726 -7.726,7.726 z"
           id="path3906" />
      </g>
      <circle
         cx="171.00999"
         cy="395.07401"
         fill="#ff83b4"
         r="20.604"
         id="circle3910" />
      <circle
         cx="243.123"
         cy="395.07401"
         fill="#f9ee80"
         r="20.604"
         id="circle3912" />
    </g>
  </g>
  <g
     id="g3918" />
  <g
     id="g3920" />
  <g
     id="g3922" />
  <g
     id="g3924" />
  <g
     id="g3926" />
  <g
     id="g3928" />
  <g
     id="g3930" />
  <g
     id="g3932" />
  <g
     id="g3934" />
  <g
     id="g3936" />
  <g
     id="g3938" />
  <g
     id="g3940" />
  <g
     id="g3942" />
  <g
     id="g3944" />
  <g
     id="g3946" />
</svg>
