<?xml version="1.0" encoding="UTF-8" standalone="no"?>
<!-- Created with Inkscape (http://www.inkscape.org/) -->

<svg
   version="1.1"
   id="svg5205"
   xml:space="preserve"
   width="682.66669"
   height="682.66669"
   viewBox="0 0 682.66669 682.66669"
   xmlns="http://www.w3.org/2000/svg"
   xmlns:svg="http://www.w3.org/2000/svg"><defs
     id="defs5209"><clipPath
       clipPathUnits="userSpaceOnUse"
       id="clipPath5219"><path
         d="M 0,512 H 512 V 0 H 0 Z"
         id="path5217" /></clipPath></defs><g
     id="g5211"
     transform="matrix(1.3333333,0,0,-1.3333333,0,682.66667)"><g
       id="g5213"><g
         id="g5215"
         clip-path="url(#clipPath5219)"><g
           id="g5221"
           transform="translate(364.6689,488.7666)"><path
             d="m 0,0 -7.549,23.233 c -8.28,0 -15,-6.719 -15,-15 v -62 c 0,-8.28 6.72,-15 15,-15 2.757,0 5.33,0.756 7.549,2.052 z"
             style="fill:#8c93e8;fill-opacity:1;fill-rule:nonzero;stroke:none"
             id="path5223" /></g><g
           id="g5225"
           transform="translate(372.1201,497)"><path
             d="m 0,0 v -62 c 0,-8.28 -6.71,-15 -15,-15 V 15 C -6.71,15 0,8.28 0,0"
             style="fill:#7077e2;fill-opacity:1;fill-rule:nonzero;stroke:none"
             id="path5227" /></g><g
           id="g5229"
           transform="translate(364.9727,428.4814)"><path
             d="m 0,0 -7.853,21.519 h -30 c -8.27,0 -15,-6.72 -15,-15 v -60 c 0,-8.281 6.73,-15 15,-15 H 0 Z"
             style="fill:#b5dbff;fill-opacity:1;fill-rule:nonzero;stroke:none"
             id="path5231" /></g><g
           id="g5233"
           transform="translate(402.1201,435)"><path
             d="m 0,0 v -60 c 0,-8.28 -6.71,-15 -15,-15 h -30 v 90 h 30 C -6.71,15 0,8.28 0,0"
             style="fill:#91caf9;fill-opacity:1;fill-rule:nonzero;stroke:none"
             id="path5235" /></g><g
           id="g5237"
           transform="translate(375.5762,326.6211)"><path
             d="m 0,0 -18.456,63.379 h -101.12 c -8.28,0 -15,-6.72 -15,-15 v -356.18 H 0 Z"
             style="fill:#8c93e8;fill-opacity:1;fill-rule:nonzero;stroke:none"
             id="path5239" /></g><g
           id="g5241"
           transform="translate(443.25,18.8203)"><path
             d="M 0,0 H -86.13 V 371.18 H -15 c 8.28,0 15,-6.72 15,-15 z"
             style="fill:#7077e2;fill-opacity:1;fill-rule:nonzero;stroke:none"
             id="path5243" /></g><g
           id="g5245"
           transform="translate(196.5098,434.7402)"><path
             d="m 0,0 v -419.6 h -127.76 v 109.62 l 10,15 -10,15 v 30 l 10,10.24 -10,19.76 v 30 l 10,10.24 -10,19.76 v 30 l 10,15 -10,15 v 30 l 10,15 -10,15 v 12.24 c 0,5.58 3.111,10.71 8.061,13.29 l 93.069,48.63 z"
             style="fill:#d6e8fe;fill-opacity:1;fill-rule:nonzero;stroke:none"
             id="path5247" /></g><g
           id="g5249"
           transform="translate(271,497)"><path
             d="M 0,0 V -481.859 H -101.12 V -28.08 l 79.17,41.37 c 4.66,2.43 10.24,2.26 14.72,-0.46 C -2.74,10.109 0,5.25 0,0"
             style="fill:#b5dbff;fill-opacity:1;fill-rule:nonzero;stroke:none"
             id="path5251" /></g><g
           id="g5253"
           transform="translate(179.209,67.7471)"><path
             d="m 0,0 -9.329,27.013 h -30 c -8.29,0 -15,-6.71 -15,-15 v -60.05 H 0 Z"
             style="fill:#406080;fill-opacity:1;fill-rule:nonzero;stroke:none"
             id="path5255" /></g><g
           id="g5257"
           transform="translate(214.8799,79.7598)"><path
             d="M 0,0 V -60.05 H -45 V 15 h 30 C -6.72,15 0,8.29 0,0"
             style="fill:#284866;fill-opacity:1;fill-rule:nonzero;stroke:none"
             id="path5259" /></g><g
           id="g5261"
           transform="translate(147.8799,199.7598)"><path
             d="M 0,0 C 0,-8.279 -6.72,-15 -15,-15 H -79.13 V 15 H -15 C -6.72,15 0,8.29 0,0"
             style="fill:#8c93e8;fill-opacity:1;fill-rule:nonzero;stroke:none"
             id="path5263" /></g><g
           id="g5265"
           transform="translate(147.8799,139.7598)"><path
             d="M 0,0 C 0,-8.279 -6.72,-15 -15,-15 H -79.13 V 15 H -15 C -6.72,15 0,8.29 0,0"
             style="fill:#8c93e8;fill-opacity:1;fill-rule:nonzero;stroke:none"
             id="path5267" /></g><g
           id="g5269"
           transform="translate(147.8799,259.7598)"><path
             d="M 0,0 C 0,-8.279 -6.72,-15 -15,-15 H -79.13 V 15 H -15 C -6.72,15 0,8.29 0,0"
             style="fill:#8c93e8;fill-opacity:1;fill-rule:nonzero;stroke:none"
             id="path5271" /></g><g
           id="g5273"
           transform="translate(147.8799,319.7598)"><path
             d="M 0,0 C 0,-8.279 -6.72,-15 -15,-15 H -79.13 V 15 H -15 C -6.72,15 0,8.29 0,0"
             style="fill:#8c93e8;fill-opacity:1;fill-rule:nonzero;stroke:none"
             id="path5275" /></g><g
           id="g5277"
           transform="translate(147.8799,379.7598)"><path
             d="M 0,0 C 0,-8.279 -6.72,-15 -15,-15 H -79.13 V 15 H -15 C -6.72,15 0,8.29 0,0"
             style="fill:#8c93e8;fill-opacity:1;fill-rule:nonzero;stroke:none"
             id="path5279" /></g><g
           id="g5281"
           transform="translate(271,30)"><path
             d="m 0,0 h -256 c -8.28,0 -15,-6.72 -15,-15 0,-8.28 6.72,-15 15,-15 H 0 l 15.2,15.141 z"
             style="fill:#65d6a9;fill-opacity:1;fill-rule:nonzero;stroke:none"
             id="path5283" /></g><g
           id="g5285"
           transform="translate(512,15)"><path
             d="M 0,0 C 0,-8.28 -6.72,-15 -15,-15 H -241 V 15 H -15 C -6.72,15 0,8.28 0,0"
             style="fill:#26bfa6;fill-opacity:1;fill-rule:nonzero;stroke:none"
             id="path5287" /></g><g
           id="g5289"
           transform="translate(322.1201,69.8789)"><path
             d="m 0,0 c -8.284,0 -15,6.716 -15,15 v 250.242 c 0,8.284 6.716,15 15,15 8.284,0 15,-6.716 15,-15 V 15 C 15,6.716 8.284,0 0,0"
             style="fill:#d6e8fe;fill-opacity:1;fill-rule:nonzero;stroke:none"
             id="path5291" /></g><g
           id="g5293"
           transform="translate(392.1201,69.8789)"><path
             d="m 0,0 c -8.284,0 -15,6.716 -15,15 v 250.242 c 0,8.284 6.716,15 15,15 8.284,0 15,-6.716 15,-15 V 15 C 15,6.716 8.284,0 0,0"
             style="fill:#b5dbff;fill-opacity:1;fill-rule:nonzero;stroke:none"
             id="path5295" /></g></g></g></g></svg>
