<svg id="Layer_3" height="512" viewBox="0 0 64 64" width="512" xmlns="http://www.w3.org/2000/svg" data-name="Layer 3"><path d="m38 42v-36h4v-4h12v4h4v36z" fill="#e0e0e0"/><path d="m38 10h20v32h-20z" fill="#c7e2fb"/><path d="m42 10h4v32h-4z" fill="#ebf7fe"/><path d="m30 24h20v38h-20z" fill="#4596ec"/><path d="m40 38v8h4a3 3 0 0 0 3-3v-5z" fill="#6aabf0"/><path d="m30 38v8h4a3 3 0 0 0 3-3v-5z" fill="#6aabf0"/><path d="m40 24v8h4a3 3 0 0 0 3-3v-5z" fill="#6aabf0"/><path d="m30 34h20v4h-20z" fill="#b3bec4"/><path d="m30 48h20v4h-20z" fill="#b3bec4"/><path d="m4 24h22v38h-22z" fill="#b3bec4"/><path d="m4 24v29h16a3 3 0 0 0 3-3v-26z" fill="#c2cbd0"/><path d="m17 44h18v18h-18z" fill="#c2cbd0"/><path d="m17 44h18v14h-18z" fill="#e0e0e0"/><path d="m17 44v12h14a2 2 0 0 0 2-2v-10z" fill="#f5f5f5"/><path d="m45 42h15v20h-15z" fill="#b3bec4"/><path d="m45 42v18h10a3 3 0 0 0 3-3v-15z" fill="#c2cbd0"/><path d="m1 61h62v2h-62z" fill="#c2cbd0"/><g fill="#4596ec"><path d="m9 36h4v4h-4z"/><path d="m17 36h4v4h-4z"/><path d="m9 28h4v4h-4z"/><path d="m17 28h4v4h-4z"/><path d="m9 44h4v4h-4z"/><path d="m9 52h4v4h-4z"/></g><path d="m50 10h4v32h-4z" fill="#ebf7fe"/><path d="m48 47h9v2h-9z" fill="#e0e0e0"/><path d="m48 51h9v2h-9z" fill="#e0e0e0"/><path d="m48 55h9v2h-9z" fill="#e0e0e0"/><path d="m21 48h10v6h-10z" fill="#c7e2fb"/><path d="m25 48h2v6h-2z" fill="#ebf7fe"/><path d="m39 24h2v10h-2z" fill="#b3bec4"/><path d="m39 38h2v10h-2z" fill="#b3bec4"/><circle cx="7" cy="15" fill="#4596ec" r="2"/><circle cx="22" cy="14" fill="#4596ec" r="2"/><circle cx="32" cy="4" fill="#4596ec" r="2"/><circle cx="15" cy="7" fill="#4596ec" r="2"/><path d="m30 24v8h4a3 3 0 0 0 3-3v-5z" fill="#6aabf0"/><path d="m32 1a3 3 0 0 0 -3 3 2.951 2.951 0 0 0 .3 1.285l-6.015 6.015a2.893 2.893 0 0 0 -2.57 0l-3.015-3.015a2.951 2.951 0 0 0 .3-1.285 3 3 0 0 0 -6 0 2.951 2.951 0 0 0 .3 1.285l-4.015 4.015a2.951 2.951 0 0 0 -1.285-.3 3 3 0 1 0 3 3 2.951 2.951 0 0 0 -.3-1.285l4.015-4.015a2.893 2.893 0 0 0 2.57 0l3.015 3.015a2.951 2.951 0 0 0 -.3 1.285 3 3 0 0 0 6 0 2.951 2.951 0 0 0 -.3-1.285l6.015-6.015a2.951 2.951 0 0 0 1.285.3 3 3 0 0 0 0-6zm-25 15a1 1 0 1 1 1-1 1 1 0 0 1 -1 1zm7-9a1 1 0 1 1 1 1 1 1 0 0 1 -1-1zm8 8a1 1 0 1 1 1-1 1 1 0 0 1 -1 1zm10-10a1 1 0 1 1 1-1 1 1 0 0 1 -1 1z" fill="#6aabf0"/></svg>