<svg id="Icons" height="512" viewBox="0 0 60 60" width="512" xmlns="http://www.w3.org/2000/svg"><g fill="#9fbace"><path d="m51.59 52h5.41a2.015 2.015 0 0 1 2 2 2.006 2.006 0 0 1 -2 2h-5.41z"/><path d="m34.59 52h7.82v4h-7.82z"/><path d="m8.41 56h-5.41a1.955 1.955 0 0 1 -1.41-.59 1.955 1.955 0 0 1 -.59-1.41 2.006 2.006 0 0 1 2-2h5.41z"/><path d="m17.59 52h7.82v4h-7.82z"/></g><circle cx="13" cy="54" fill="#c0daf0" r="5"/><circle cx="30" cy="54" fill="#c0daf0" r="5"/><circle cx="47" cy="54" fill="#c0daf0" r="5"/><path d="m53 5v34a4 4 0 0 1 -4 4h-11l-8 6-8-6h-11a4 4 0 0 1 -4-4v-34a4 4 0 0 1 4-4h38a4 4 0 0 1 4 4z" fill="#49508e"/><path d="m24.707 5.293a1 1 0 0 0 -1.414 0l-5 5a1 1 0 0 0 0 1.414l5 5a1 1 0 0 0 1.414-1.414l-4.293-4.293 4.293-4.293a1 1 0 0 0 0-1.414z" fill="#76e4c1"/><path d="m41.707 10.293-5-5a1 1 0 0 0 -1.414 1.414l4.293 4.293-4.293 4.293a1 1 0 1 0 1.414 1.414l5-5a1 1 0 0 0 0-1.414z" fill="#76e4c1"/><path d="m32.316 4.052a1 1 0 0 0 -1.264.632l-4 12a1 1 0 1 0 1.9.632l4-12a1 1 0 0 0 -.636-1.264z" fill="#76e4c1"/><path d="m13 22h-1a1 1 0 0 1 0-2h1a1 1 0 0 1 0 2z" fill="#2e3360"/><path d="m13 26h-1a1 1 0 0 1 0-2h1a1 1 0 0 1 0 2z" fill="#2e3360"/><path d="m48 26h-2a1 1 0 0 1 0-2h2a1 1 0 0 1 0 2z" fill="#fff"/><path d="m13 30h-1a1 1 0 0 1 0-2h1a1 1 0 0 1 0 2z" fill="#2e3360"/><path d="m13 34h-1a1 1 0 0 1 0-2h1a1 1 0 0 1 0 2z" fill="#2e3360"/><path d="m13 38h-1a1 1 0 0 1 0-2h1a1 1 0 0 1 0 2z" fill="#2e3360"/><path d="m17 38a1 1 0 0 1 -1-1v-16a1 1 0 0 1 2 0v16a1 1 0 0 1 -1 1z" fill="#2e3360"/><path d="m31 22h-10a1 1 0 0 1 0-2h10a1 1 0 0 1 0 2z" fill="#f9c84e"/><path d="m33 26h-10a1 1 0 0 1 0-2h10a1 1 0 0 1 0 2z" fill="#f9c84e"/><path d="m42 26h-5a1 1 0 0 1 0-2h5a1 1 0 0 1 0 2z" fill="#eb6374"/><path d="m39 30h-15a1 1 0 0 1 0-2h15a1 1 0 0 1 0 2z" fill="#f9c84e"/><path d="m31 34h-10a1 1 0 0 1 0-2h10a1 1 0 0 1 0 2z" fill="#f9c84e"/><path d="m33 38h-10a1 1 0 0 1 0-2h10a1 1 0 0 1 0 2z" fill="#f9c84e"/><path d="m42 38h-5a1 1 0 0 1 0-2h5a1 1 0 0 1 0 2z" fill="#eb6374"/></svg>