<?xml version="1.0" encoding="UTF-8" standalone="no"?>
<svg
   id="Capa_1"
   enable-background="new 0 0 512 512"
   height="512"
   viewBox="0 0 512 512"
   width="512"
   version="1.1"
   sodipodi:docname="graphics.svg"
   inkscape:version="1.2 (dc2aeda, 2022-05-15)"
   xmlns:inkscape="http://www.inkscape.org/namespaces/inkscape"
   xmlns:sodipodi="http://sodipodi.sourceforge.net/DTD/sodipodi-0.dtd"
   xmlns="http://www.w3.org/2000/svg"
   xmlns:svg="http://www.w3.org/2000/svg">
  <defs
     id="defs6354" />
  <sodipodi:namedview
     id="namedview6352"
     pagecolor="#ffffff"
     bordercolor="#000000"
     borderopacity="0.25"
     inkscape:showpageshadow="2"
     inkscape:pageopacity="0.0"
     inkscape:pagecheckerboard="0"
     inkscape:deskcolor="#d1d1d1"
     showgrid="false"
     inkscape:zoom="1.6582031"
     inkscape:cx="256"
     inkscape:cy="256"
     inkscape:window-width="1869"
     inkscape:window-height="1027"
     inkscape:window-x="51"
     inkscape:window-y="25"
     inkscape:window-maximized="1"
     inkscape:current-layer="g6349" />
  <g
     id="g6349">
    <g
       id="g6275">
      <g
         id="g6205">
        <g
           id="g6203">
          <path
             d="m211.336 407.902h89.328v72.169h-89.328z"
             fill="#a2c7f8"
             id="path6201" />
        </g>
      </g>
      <g
         id="g6209">
        <path
           d="m211.336 407.902h32.302v72.169h-32.302z"
           fill="#8db3df"
           id="path6207" />
      </g>
      <g
         id="g6213">
        <path
           d="m345.626 507.364h-179.252c-5.69 0-10.302-4.612-10.302-10.302v-7.72c0-5.69 4.612-10.302 10.302-10.302h179.252c5.69 0 10.302 4.612 10.302 10.302v7.72c0 5.69-4.613 10.302-10.302 10.302z"
           fill="#d8ecfe"
           id="path6211"
           style="fill:#e4ebf2;fill-opacity:1" />
      </g>
      <g
         id="g6217">
        <path
           d="m207.581 497.062v-7.72c0-5.69 4.612-10.302 10.302-10.302h-51.509c-5.69 0-10.302 4.612-10.302 10.302v7.72c0 5.69 4.612 10.302 10.302 10.302h51.509c-5.689 0-10.302-4.612-10.302-10.302z"
           fill="#c4e2ff"
           id="path6215"
           style="fill:#d7e2ec;fill-opacity:1" />
      </g>
      <g
         id="g6221">
        <path
           d="m0 388.328c0 11.379 9.225 20.604 20.604 20.604h470.793c11.379 0 20.604-9.225 20.604-20.604v-30.596h-512.001z"
           fill="#d8ecfe"
           id="path6219"
           style="fill:#e4ecf2;fill-opacity:1" />
      </g>
      <g
         id="g6225">
        <path
           d="m52.024 388.328v-30.596h-52.024v30.596c0 11.379 9.225 20.604 20.604 20.604h52.024c-11.379 0-20.604-9.225-20.604-20.604z"
           fill="#c4e2ff"
           id="path6223" />
      </g>
      <g
         id="g6229">
        <path
           d="m274.543 390.206h-37.086c-4.143 0-7.5-3.358-7.5-7.5s3.357-7.5 7.5-7.5h37.086c4.143 0 7.5 3.358 7.5 7.5s-3.357 7.5-7.5 7.5z"
           fill="#a2c7f8"
           id="path6227" />
      </g>
      <g
         id="g6233">
        <path
           d="m512 357.732h-512v-290.268c0-8.534 6.918-15.453 15.453-15.453h481.095c8.534 0 15.453 6.918 15.453 15.453v290.268z"
           fill="#647fa0"
           id="path6231" />
      </g>
      <path
         d="m32.385 330.498c-2.845 0-5.151-2.306-5.151-5.151v-240.951c0-2.845 2.306-5.151 5.151-5.151h19.639v-11.781c0-8.535 6.918-15.453 15.453-15.453h-52.024c-8.535 0-15.453 6.918-15.453 15.453v290.268h52.024v-27.234z"
         fill="#5e6f90"
         id="path6235" />
      <path
         d="m479.615 79.245h-447.23c-2.845 0-5.151 2.306-5.151 5.151v240.951c0 2.845 2.306 5.151 5.151 5.151h123.541l1.732-1 19.832-34.351h29.748c2.84 0 5.15-2.311 5.15-5.151v-55.294l32.706-56.648c.881-1.527 2.46-2.438 4.223-2.438s3.342.911 4.223 2.438l72.749 126.006.383-.06.376.07 58.288-100.958c.881-1.526 2.46-2.438 4.223-2.438s3.342.912 4.223 2.438l72.969 126.386 1.733 1h11.131c2.845 0 5.151-2.306 5.151-5.151v-240.951c0-2.845-2.306-5.151-5.151-5.151z"
         fill="#fed2a4"
         id="path6237" />
      <g
         id="g6241">
        <circle
           cx="411.557"
           cy="145.771"
           fill="#fe9901"
           r="26.785"
           id="circle6239" />
      </g>
      <g
         id="g6245">
        <path
           d="m405.376 145.771c0-11.142 6.804-20.692 16.483-24.729-3.172-1.323-6.651-2.056-10.302-2.056-14.793 0-26.785 11.992-26.785 26.785s11.992 26.785 26.785 26.785c3.651 0 7.13-.733 10.302-2.056-9.678-4.037-16.483-13.588-16.483-24.729z"
           fill="#fb8801"
           id="path6243" />
      </g>
      <path
         d="m70.436 325.347v-30.201h-6.049c-2.845 0-5.151-2.306-5.151-5.151v-168.95c0-5.69 4.612-10.302 10.302-10.302h.899v-26.347c0-2.845 2.306-5.151 5.151-5.151h-43.203c-2.845 0-5.151 2.306-5.151 5.151v240.952c0 2.845 2.306 5.151 5.151 5.151h43.202c-2.845-.001-5.151-2.307-5.151-5.152z"
         fill="#ffbd86"
         id="path6247" />
      <g
         id="g6273">
        <g
           id="g6251">
          <path
             d="m384.471 202.612-73.835 127.886h157.848l-73.835-127.886c-2.262-3.917-7.916-3.917-10.178 0z"
             fill="#0182fc"
             id="path6249"
             style="fill:#238dde;fill-opacity:1;font-variation-settings:normal;opacity:1;vector-effect:none;stroke-width:1;stroke-linecap:butt;stroke-linejoin:miter;stroke-miterlimit:4;stroke-dasharray:none;stroke-dashoffset:0;stroke-opacity:1;-inkscape-stroke:none;stop-color:#000000;stop-opacity:1" />
        </g>
        <path
           d="m342.354 329.885 62.888-108.924-10.593-18.348c-2.262-3.917-7.916-3.917-10.178 0l-57.799 100.11z"
           fill="#0172fb"
           id="path6253"
           style="fill:#2e7ebb;fill-opacity:1;font-variation-settings:normal;opacity:1;vector-effect:none;stroke-width:1;stroke-linecap:butt;stroke-linejoin:miter;stroke-miterlimit:4;stroke-dasharray:none;stroke-dashoffset:0;stroke-opacity:1;-inkscape-stroke:none;stop-color:#000000;stop-opacity:1" />
        <path
           d="m290.513 240.093h-1.154l-8.415 14.575c-1.06 1.835-2.958 2.931-5.077 2.931-2.12 0-4.019-1.096-5.078-2.931l-8.106-14.042c-1.879-3.254-5.244-5.197-9.002-5.197s-7.122 1.943-9.001 5.197l-13.149 22.775c-1.06 1.835-2.958 2.932-5.077 2.932s-4.018-1.096-5.077-2.932l-9.987-17.299v43.894c0 2.289-1.862 4.151-4.15 4.151h-30.325l-20.987 36.351h186.783z"
           fill="#0593fc"
           id="path6255"
           style="fill:#238dde;fill-opacity:1" />
        <g
           fill="#0182fc"
           id="g6261">
          <path
             d="m211.389 289.996c0 .002-.001.005-.001.007l13.234-22.922c-1.642-.448-3.144-1.504-4.112-3.18l-9.121-15.799z"
             id="path6257"
             style="font-variation-settings:normal;opacity:1;vector-effect:none;fill:#2e7ebb;fill-opacity:1;stroke-width:1;stroke-linecap:butt;stroke-linejoin:miter;stroke-miterlimit:4;stroke-dasharray:none;stroke-dashoffset:0;stroke-opacity:1;-inkscape-stroke:none;stop-color:#000000;stop-opacity:1" />
          <path
             d="m207.238 294.147h-30.325l-20.987 36.351h32.082l21.328-36.941c-.618.366-1.329.59-2.098.59z"
             id="path6259"
             style="fill:#2e7ebb;fill-opacity:1;font-variation-settings:normal;opacity:1;vector-effect:none;stroke-width:1;stroke-linecap:butt;stroke-linejoin:miter;stroke-miterlimit:4;stroke-dasharray:none;stroke-dashoffset:0;stroke-opacity:1;-inkscape-stroke:none;stop-color:#000000;stop-opacity:1" />
        </g>
        <g
           fill="#8db3df"
           id="g6267">
          <path
             d="m425.227 45.962-2.23-.815-101.731 101.73.122 1.373 27.995 27.995 1.317.066 101.731-101.73-1.871-3.285z"
             id="path6263" />
          <path
             d="m490.348 24.142-16.912-16.913c-3.458-3.458-9.064-3.458-12.521 0l-21.602 21.602 1.693 3.107 25.65 25.65 2.091.677 21.602-21.602c3.457-3.458 3.457-9.064-.001-12.521z"
             id="path6265" />
        </g>
        <path
           d="m254.406 177.554c-2.262-3.918-7.916-3.918-10.178 0l-32.84 56.88v13.668l9.121 15.799c2.642 4.575 9.245 4.575 11.887 0l13.149-22.775c3.616-6.262 12.655-6.262 16.271 0l8.107 14.042c2.641 4.575 9.245 4.575 11.887 0l8.703-15.075z"
           fill="#fff"
           id="path6269" />
        <path
           d="m254.406 177.554c-2.262-3.918-7.916-3.918-10.178 0l-32.84 56.88v13.668l9.121 15.799c.968 1.677 2.47 2.732 4.112 3.18l40.736-70.557z"
           fill="#eaf6ff"
           id="path6271" />
      </g>
    </g>
    <g
       id="g6325">
      <g
         id="g6279">
        <path
           d="m202.087 110.744h-132.55c-5.69 0-10.302 4.612-10.302 10.302v35.065l2.461 1.03h148.048l2.644-1.03v-35.065c.001-5.689-4.611-10.302-10.301-10.302z"
           fill="#fe646f"
           id="path6277" />
      </g>
      <g
         id="g6283">
        <path
           d="m91.514 121.046c0-5.69 4.612-10.302 10.302-10.302h-32.279c-5.69 0-10.302 4.612-10.302 10.302v35.065l2.461 1.03h32.279l-2.461-1.03z"
           fill="#fd4755"
           id="path6281" />
      </g>
      <g
         id="g6287">
        <path
           d="m207.238 295.147h-142.852c-2.845 0-5.151-2.306-5.151-5.151v-133.885h153.154v133.885c0 2.845-2.306 5.151-5.151 5.151z"
           fill="#fff"
           id="path6285" />
      </g>
      <g
         id="g6291">
        <path
           d="m91.514 289.996v-133.885h-32.279v133.885c0 2.845 2.306 5.151 5.151 5.151h32.279c-2.844 0-5.151-2.306-5.151-5.151z"
           fill="#eaf6ff"
           id="path6289" />
      </g>
      <g
         id="g6311">
        <g
           id="g6295">
          <path
             d="m186.635 254.782h-101.645c-4.143 0-7.5-3.358-7.5-7.5s3.357-7.5 7.5-7.5h101.645c4.143 0 7.5 3.358 7.5 7.5s-3.358 7.5-7.5 7.5z"
             fill="#8db3df"
             id="path6293" />
        </g>
        <g
           id="g6299">
          <circle
             cx="156.244"
             cy="247.282"
             fill="#0593fc"
             r="16"
             id="circle6297"
             style="font-variation-settings:normal;opacity:1;vector-effect:none;fill:#238dde;fill-opacity:1;stroke-width:1;stroke-linecap:butt;stroke-linejoin:miter;stroke-miterlimit:4;stroke-dasharray:none;stroke-dashoffset:0;stroke-opacity:1;-inkscape-stroke:none;stop-color:#000000;stop-opacity:1" />
        </g>
        <g
           id="g6309">
          <g
             id="g6303">
            <path
               d="m186.635 210.484h-101.645c-4.143 0-7.5-3.358-7.5-7.5s3.357-7.5 7.5-7.5h101.645c4.143 0 7.5 3.358 7.5 7.5s-3.358 7.5-7.5 7.5z"
               fill="#8db3df"
               id="path6301" />
          </g>
          <g
             id="g6307">
            <circle
               cx="115.037"
               cy="202.984"
               fill="#0593fc"
               r="16"
               id="circle6305"
               style="font-variation-settings:normal;opacity:1;vector-effect:none;fill:#238dde;fill-opacity:1;stroke-width:1;stroke-linecap:butt;stroke-linejoin:miter;stroke-miterlimit:4;stroke-dasharray:none;stroke-dashoffset:0;stroke-opacity:1;-inkscape-stroke:none;stop-color:#000000;stop-opacity:1" />
          </g>
        </g>
      </g>
      <g
         id="g6315">
        <circle
           cx="187.556"
           cy="131.902"
           fill="#ffbd86"
           r="7.5"
           id="circle6313" />
      </g>
      <g
         id="g6319">
        <circle
           cx="166.889"
           cy="131.902"
           fill="#ffbd86"
           r="7.5"
           id="circle6317" />
      </g>
      <g
         id="g6323">
        <circle
           cx="146.223"
           cy="131.902"
           fill="#ffbd86"
           r="7.5"
           id="circle6321" />
      </g>
    </g>
    <g
       id="g6347">
      <g
         fill="#799fca"
         id="g6331">
        <path
           d="m480.567 14.361-7.132-7.131c-3.458-3.458-9.064-3.458-12.521 0l-21.602 21.602 13.392 13.392z"
           id="path6327" />
        <path
           d="m351.693 143.235 84.696-84.696-13.392-13.392-101.73 101.73.121 1.373 27.995 27.995 1.318.066 13.392-13.392-12.399-12.399c-2.012-2.012-2.012-5.274-.001-7.285z"
           id="path6329" />
      </g>
      <g
         id="g6345">
        <g
           id="g6335">
          <path
             d="m321.266 146.877c-.833.833-1.491 1.823-1.936 2.913l-17.258 42.251c-.89 2.179 1.284 4.353 3.463 3.463l42.251-17.258c1.09-.445 2.08-1.103 2.913-1.936z"
             fill="#647fa0"
             id="path6333" />
        </g>
        <g
           id="g6339">
          <path
             d="m434.335 30.893h23.074v41.626h-23.074z"
             fill="#c4e2ff"
             transform="matrix(.707 -.707 .707 .707 94.031 330.423)"
             id="path6337" />
        </g>
        <g
           id="g6343">
          <path
             d="m426.314 34.215h23.074v18.94h-23.074z"
             fill="#b3dafe"
             transform="matrix(.707 -.707 .707 .707 97.355 322.404)"
             id="path6341" />
        </g>
      </g>
    </g>
  </g>
</svg>
