<svg id="Capa_1" enable-background="new 0 0 511.999 511.999" height="512" viewBox="0 0 511.999 511.999" width="512" xmlns="http://www.w3.org/2000/svg"><g><g><path d="m507.654 319.635c-1.825-5.698-6.849-9.772-12.782-10.54-7.509-.97-15.018-1.717-22.521-2.229-5.913-.411-11.025-4.182-13.287-9.664-.02-.061-.047-.121-.074-.182-2.27-5.475-1.333-11.752 2.566-16.224 4.936-5.671 9.725-11.503 14.345-17.503 3.657-4.734 4.324-11.173 1.583-16.493-8.021-15.55-19.807-27.336-35.357-35.357-5.32-2.741-11.759-2.074-16.493 1.583-6.001 4.62-11.833 9.408-17.503 14.345-4.472 3.899-10.748 4.835-16.224 2.566-.061-.027-.121-.054-.182-.074-5.482-2.263-9.253-7.374-9.664-13.287-.512-7.502-1.259-15.011-2.229-22.521-.768-5.933-4.842-10.957-10.54-12.782-16.668-5.32-33.343-5.32-50.011 0-5.698 1.825-9.772 6.849-10.54 12.782-.97 7.509-1.717 15.018-2.229 22.521-.411 5.913-4.182 11.025-9.664 13.287-.061.02-.121.047-.182.074-5.475 2.27-11.752 1.333-16.224-2.566-5.671-4.936-11.503-9.725-17.503-14.345-4.734-3.657-11.173-4.324-16.493-1.583-15.55 8.021-27.336 19.807-35.357 35.357-2.741 5.32-2.074 11.759 1.583 16.493 4.62 6.001 9.408 11.833 14.345 17.503 3.899 4.472 4.835 10.748 2.566 16.224-.027.061-.054.121-.074.182-2.263 5.482-7.374 9.253-13.287 9.664-7.502.512-15.012 1.259-22.521 2.229-5.933.768-10.957 4.842-12.782 10.54-5.32 16.668-5.32 33.343 0 50.011 1.825 5.697 6.849 9.772 12.782 10.54 7.509.97 15.018 1.717 22.521 2.229 5.913.411 11.025 4.182 13.287 9.664.02.061.047.121.074.182 2.27 5.475 1.333 11.752-2.566 16.224-4.936 5.671-9.725 11.503-14.345 17.503-3.657 4.734-4.324 11.173-1.583 16.493 8.021 15.55 19.807 27.336 35.357 35.357 5.32 2.741 11.759 2.074 16.493-1.583 6.001-4.62 11.833-9.408 17.503-14.345 4.472-3.899 10.748-4.835 16.224-2.566.061.027.121.054.182.074 5.482 2.263 9.253 7.374 9.664 13.287.512 7.502 1.259 15.012 2.229 22.521.768 5.933 4.842 10.957 10.54 12.782 16.668 5.32 33.343 5.32 50.011 0 5.698-1.825 9.772-6.849 10.54-12.782.97-7.509 1.717-15.018 2.229-22.521.411-5.913 4.182-11.025 9.664-13.287.061-.02.121-.047.182-.074 5.475-2.27 11.752-1.333 16.224 2.566 5.671 4.936 11.503 9.725 17.503 14.345 4.734 3.657 11.173 4.324 16.493 1.583 15.55-8.021 27.336-19.807 35.357-35.357 2.741-5.32 2.074-11.759-1.583-16.493-4.62-6.001-9.408-11.833-14.345-17.503-3.899-4.472-4.835-10.748-2.566-16.224.027-.061.054-.121.074-.182 2.263-5.482 7.374-9.253 13.287-9.664 7.502-.512 15.012-1.259 22.521-2.229 5.933-.768 10.957-4.842 12.782-10.54 5.32-16.668 5.32-33.343 0-50.011zm-163.369 99.009c-40.871 0-74.003-33.132-74.003-74.003s33.132-74.003 74.003-74.003 74.003 33.132 74.003 74.003c.001 40.871-33.132 74.003-74.003 74.003z" fill="#81a7c6"/><path d="m229.612 446.595c-2.741-5.543-2.074-12.251 1.583-17.187 4.62-6.25 9.409-12.331 14.345-18.238 3.899-4.66 4.836-11.2 2.566-16.904-.027-.067-.054-.128-.074-.195-2.263-5.711-7.375-9.638-13.288-10.069-7.503-.532-15.012-1.313-22.521-2.324-5.933-.801-10.958-5.044-12.783-10.984-5.32-17.369-5.32-34.745 0-52.114 1.825-5.94 6.849-10.183 12.783-10.984 7.509-1.01 15.019-1.791 22.521-2.324 5.913-.431 11.025-4.357 13.288-10.069.02-.067.047-.128.074-.195 2.27-5.704 1.333-12.244-2.566-16.904-4.937-5.906-9.725-11.988-14.345-18.238-3.657-4.937-4.324-11.645-1.583-17.187 6.688-13.51 15.995-24.299 27.916-32.354-3.644-1.01-7.604-.673-11.086 1.118-15.551 8.021-27.33 19.8-35.351 35.351-2.741 5.321-2.074 11.759 1.583 16.494 4.62 6.001 9.409 11.833 14.338 17.504 3.899 4.472 4.836 10.749 2.566 16.224-.027.061-.054.121-.074.182-2.263 5.482-7.368 9.254-13.281 9.664-7.503.512-15.012 1.259-22.521 2.229-5.933.768-10.958 4.842-12.783 10.54-5.32 16.669-5.32 33.344 0 50.013 1.825 5.698 6.849 9.772 12.783 10.54 7.509.97 15.019 1.717 22.521 2.229 5.913.411 11.018 4.182 13.281 9.664.02.061.047.121.074.182 2.27 5.475 1.333 11.752-2.566 16.224-4.93 5.671-9.718 11.503-14.338 17.504-3.657 4.735-4.324 11.173-1.583 16.494 8.021 15.551 19.8 27.33 35.351 35.351 3.482 1.791 7.442 2.128 11.086 1.118-11.921-8.055-21.229-18.845-27.916-32.355zm97.648 54.97c-.97-7.826-1.717-15.652-2.229-23.471-.411-6.162-4.182-11.49-9.664-13.847-.061-.02-.121-.047-.182-.074-3.92-1.697-8.25-1.677-12.035-.04 1.933 2.404 3.138 5.368 3.361 8.567.512 7.503 1.259 15.012 2.229 22.521.768 5.933 4.842 10.958 10.54 12.783 4.135 1.32 8.277 2.317 12.412 2.984-2.392-2.493-3.981-5.793-4.432-9.423zm-7.981-320.295c-5.698 1.825-9.772 6.849-10.54 12.783-.97 7.509-1.717 15.019-2.229 22.521-.222 3.199-1.428 6.162-3.361 8.567 3.785 1.637 8.115 1.657 12.035-.04.061-.027.121-.054.182-.074 5.482-2.357 9.254-7.684 9.664-13.847.512-7.819 1.259-15.645 2.229-23.471.451-3.63 2.041-6.93 4.432-9.422-4.135.667-8.277 1.663-12.412 2.983z" fill="#5c90b9"/></g><g><path d="m279.705 89.538c-1.148-3.584-4.308-6.146-8.04-6.629-4.723-.61-9.446-1.08-14.165-1.402-3.719-.258-6.934-2.631-8.358-6.079-.013-.038-.03-.076-.047-.114-1.428-3.444-.839-7.392 1.614-10.204 3.105-3.567 6.117-7.235 9.023-11.009 2.3-2.978 2.719-7.027.995-10.374-5.045-9.781-12.458-17.194-22.239-22.239-3.346-1.724-7.396-1.305-10.374.995-3.774 2.906-7.443 5.918-11.009 9.023-2.813 2.453-6.761 3.041-10.204 1.614-.038-.017-.076-.034-.114-.047-3.448-1.423-5.82-4.638-6.079-8.358-.322-4.719-.792-9.442-1.402-14.165-.483-3.732-3.046-6.892-6.629-8.04-10.484-3.346-20.972-3.346-31.456 0-3.584 1.148-6.146 4.308-6.629 8.04-.61 4.723-1.08 9.446-1.402 14.165-.258 3.719-2.631 6.934-6.079 8.358-.038.013-.076.03-.114.047-3.444 1.428-7.392.839-10.204-1.614-3.567-3.105-7.235-6.117-11.009-9.023-2.978-2.3-7.028-2.72-10.374-.995-9.781 5.045-17.194 12.458-22.239 22.239-1.724 3.346-1.305 7.396.995 10.374 2.906 3.774 5.918 7.443 9.023 11.009 2.453 2.813 3.041 6.761 1.614 10.204-.017.038-.034.076-.047.114-1.423 3.448-4.638 5.82-8.358 6.079-4.719.322-9.442.792-14.165 1.402-3.732.483-6.892 3.046-8.04 6.629-3.346 10.484-3.346 20.972 0 31.456 1.148 3.584 4.308 6.146 8.04 6.629 4.723.61 9.446 1.08 14.165 1.402 3.719.258 6.934 2.631 8.358 6.079.013.038.03.076.047.114 1.428 3.444.839 7.392-1.614 10.205-3.105 3.567-6.117 7.235-9.023 11.009-2.3 2.978-2.719 7.028-.995 10.374 5.045 9.781 12.458 17.194 22.239 22.239 3.346 1.724 7.396 1.305 10.374-.995 3.774-2.906 7.443-5.918 11.009-9.023 2.813-2.453 6.761-3.041 10.204-1.614.038.017.076.034.114.047 3.448 1.423 5.82 4.638 6.079 8.358.322 4.719.792 9.442 1.402 14.165.483 3.732 3.046 6.892 6.629 8.04 10.484 3.346 20.972 3.346 31.456 0 3.584-1.148 6.146-4.308 6.629-8.04.61-4.723 1.08-9.446 1.402-14.165.258-3.719 2.631-6.934 6.079-8.358.038-.013.076-.03.114-.047 3.444-1.428 7.392-.839 10.204 1.614 3.567 3.105 7.235 6.117 11.009 9.023 2.978 2.3 7.028 2.719 10.374.995 9.781-5.045 17.194-12.458 22.239-22.239 1.724-3.346 1.305-7.396-.995-10.374-2.906-3.774-5.918-7.443-9.023-11.009-2.453-2.813-3.041-6.761-1.614-10.205.017-.038.034-.076.047-.114 1.423-3.448 4.638-5.82 8.358-6.079 4.719-.322 9.442-.792 14.165-1.402 3.732-.483 6.892-3.046 8.04-6.629 3.346-10.483 3.346-20.972 0-31.456zm-102.757 62.276c-25.707 0-46.547-20.84-46.547-46.547s20.84-46.547 46.547-46.547 46.547 20.84 46.547 46.547-20.839 46.547-46.547 46.547z" fill="#81a7c6"/><path d="m104.82 169.395c-1.724-3.486-1.305-7.705.995-10.811 2.906-3.931 5.918-7.756 9.023-11.471 2.453-2.931 3.042-7.045 1.614-10.633-.017-.042-.034-.08-.047-.123-1.423-3.592-4.639-6.062-8.358-6.333-4.719-.335-9.442-.826-14.166-1.461-3.732-.504-6.892-3.173-8.04-6.909-3.347-10.925-3.347-21.854 0-32.779 1.148-3.736 4.308-6.405 8.04-6.909 4.723-.635 9.447-1.127 14.166-1.461 3.719-.271 6.935-2.741 8.358-6.333.013-.042.03-.08.047-.123 1.428-3.588.839-7.701-1.614-10.633-3.105-3.715-6.117-7.54-9.023-11.471-2.3-3.105-2.72-7.324-.995-10.811 4.206-8.498 10.061-15.284 17.559-20.35-2.292-.635-4.783-.424-6.973.703-9.781 5.045-17.19 12.454-22.235 22.235-1.724 3.347-1.305 7.396.995 10.374 2.906 3.774 5.918 7.443 9.019 11.01 2.453 2.813 3.042 6.761 1.614 10.205-.017.038-.034.076-.047.114-1.423 3.448-4.634 5.82-8.354 6.079-4.719.322-9.442.792-14.166 1.402-3.732.483-6.892 3.046-8.04 6.63-3.347 10.484-3.347 20.973 0 31.457 1.148 3.584 4.308 6.147 8.04 6.629 4.723.61 9.447 1.08 14.166 1.402 3.719.258 6.93 2.631 8.354 6.079.013.038.03.076.047.114 1.428 3.444.839 7.392-1.614 10.205-3.101 3.567-6.113 7.235-9.019 11.01-2.3 2.978-2.72 7.028-.995 10.374 5.045 9.781 12.454 17.19 22.235 22.235 2.19 1.127 4.681 1.339 6.973.703-7.498-5.065-13.353-11.852-17.559-20.349zm61.419 34.575c-.61-4.922-1.08-9.845-1.402-14.763-.258-3.876-2.631-7.227-6.079-8.709-.038-.013-.076-.03-.114-.047-2.465-1.068-5.189-1.055-7.57-.025 1.216 1.512 1.974 3.376 2.114 5.388.322 4.719.792 9.442 1.402 14.166.483 3.732 3.046 6.892 6.63 8.04 2.601.83 5.206 1.457 7.807 1.877-1.504-1.568-2.504-3.644-2.788-5.927zm-5.02-201.461c-3.584 1.148-6.147 4.308-6.63 8.04-.61 4.723-1.08 9.447-1.402 14.166-.14 2.012-.898 3.876-2.114 5.388 2.381 1.029 5.105 1.042 7.57-.025.038-.017.076-.034.114-.047 3.448-1.483 5.82-4.833 6.079-8.709.322-4.918.792-9.84 1.402-14.763.284-2.283 1.284-4.359 2.787-5.926-2.599.419-5.205 1.046-7.806 1.876z" fill="#5c90b9"/></g><g><path d="m150.359 281.15c-.828-2.584-3.106-4.432-5.798-4.78-3.406-.44-6.812-.779-10.214-1.011-2.682-.186-5-1.897-6.027-4.383-.009-.027-.021-.055-.034-.082-1.029-2.483-.605-5.33 1.164-7.358 2.239-2.572 4.411-5.217 6.506-7.939 1.659-2.147 1.961-5.067.718-7.481-3.638-7.053-8.983-12.398-16.036-16.036-2.413-1.243-5.333-.941-7.481.718-2.722 2.095-5.367 4.267-7.939 6.506-2.028 1.769-4.875 2.193-7.358 1.164-.028-.012-.055-.024-.082-.034-2.486-1.026-4.197-3.345-4.383-6.027-.232-3.403-.571-6.809-1.011-10.214-.348-2.691-2.196-4.97-4.78-5.798-7.56-2.413-15.123-2.413-22.683 0-2.584.828-4.432 3.106-4.78 5.798-.44 3.406-.779 6.812-1.011 10.214-.186 2.682-1.897 5-4.383 6.027-.028.009-.055.021-.082.034-2.483 1.029-5.33.605-7.358-1.164-2.572-2.239-5.217-4.411-7.939-6.506-2.147-1.659-5.067-1.961-7.481-.718-7.053 3.638-12.398 8.983-16.036 16.036-1.243 2.413-.941 5.333.718 7.481 2.095 2.722 4.267 5.367 6.506 7.939 1.769 2.028 2.193 4.875 1.164 7.358-.012.027-.024.055-.034.082-1.026 2.486-3.345 4.197-6.027 4.383-3.403.232-6.809.571-10.214 1.011-2.691.348-4.97 2.196-5.798 4.78-2.413 7.56-2.413 15.123 0 22.683.828 2.584 3.106 4.432 5.798 4.78 3.406.44 6.812.779 10.214 1.011 2.682.186 5 1.897 6.027 4.383.009.027.021.055.034.082 1.029 2.483.605 5.33-1.164 7.358-2.239 2.572-4.411 5.217-6.506 7.939-1.659 2.147-1.961 5.067-.718 7.481 3.638 7.053 8.983 12.398 16.036 16.036 2.413 1.243 5.333.941 7.481-.718 2.722-2.095 5.367-4.267 7.939-6.506 2.028-1.769 4.875-2.193 7.358-1.164.027.012.055.024.082.034 2.486 1.026 4.197 3.345 4.383 6.027.232 3.403.571 6.809 1.011 10.214.348 2.691 2.196 4.97 4.78 5.797 7.56 2.413 15.123 2.413 22.683 0 2.584-.828 4.432-3.106 4.78-5.797.44-3.406.779-6.812 1.011-10.214.186-2.682 1.897-5 4.383-6.027.028-.009.055-.021.082-.034 2.483-1.029 5.33-.605 7.358 1.164 2.572 2.239 5.217 4.411 7.939 6.506 2.147 1.659 5.067 1.961 7.481.718 7.053-3.638 12.398-8.983 16.036-16.036 1.243-2.413.941-5.333-.718-7.481-2.095-2.722-4.267-5.367-6.506-7.939-1.769-2.028-2.193-4.875-1.164-7.358.012-.027.024-.055.034-.082 1.026-2.486 3.345-4.197 6.027-4.383 3.403-.232 6.809-.571 10.214-1.011 2.691-.348 4.97-2.196 5.798-4.78 2.413-7.56 2.413-15.123 0-22.683zm-74.097 32.555c-11.716 0-21.213-9.497-21.213-21.213s9.497-21.213 21.213-21.213 21.213 9.497 21.213 21.213c0 11.715-9.497 21.213-21.213 21.213z" fill="#81a7c6"/><path d="m24.251 338.734c-1.243-2.514-.941-5.556.718-7.795 2.095-2.835 4.267-5.593 6.506-8.272 1.769-2.114 2.193-5.08 1.164-7.667-.012-.031-.024-.058-.034-.089-1.026-2.59-3.345-4.371-6.027-4.567-3.403-.241-6.809-.596-10.215-1.054-2.691-.363-4.97-2.288-5.798-4.982-2.413-7.878-2.413-15.759 0-23.637.828-2.694 3.107-4.619 5.798-4.982 3.406-.458 6.812-.813 10.215-1.054 2.682-.195 5-1.976 6.027-4.567.009-.031.021-.058.034-.089 1.029-2.587.605-5.553-1.164-7.667-2.239-2.679-4.411-5.437-6.506-8.272-1.659-2.239-1.961-5.281-.718-7.795 3.033-6.128 7.255-11.021 12.661-14.674-1.653-.458-3.449-.305-5.028.507-7.053 3.638-12.396 8.981-16.034 16.034-1.243 2.413-.941 5.333.718 7.481 2.095 2.722 4.267 5.367 6.503 7.939 1.769 2.028 2.193 4.875 1.164 7.359-.012.027-.024.055-.034.082-1.026 2.486-3.342 4.197-6.024 4.383-3.403.232-6.809.571-10.215 1.011-2.691.348-4.97 2.196-5.798 4.78-2.413 7.56-2.413 15.123 0 22.684.828 2.584 3.107 4.432 5.798 4.78 3.406.44 6.812.779 10.215 1.011 2.682.186 4.997 1.897 6.024 4.383.009.027.021.055.034.082 1.029 2.483.605 5.33-1.164 7.359-2.236 2.572-4.408 5.217-6.503 7.939-1.659 2.147-1.961 5.068-.718 7.481 3.638 7.053 8.981 12.396 16.034 16.034 1.579.813 3.375.965 5.028.507-5.406-3.652-9.628-8.546-12.661-14.673zm44.289 24.932c-.44-3.549-.779-7.099-1.011-10.645-.186-2.795-1.897-5.211-4.383-6.28-.028-.009-.055-.021-.082-.034-1.778-.77-3.742-.761-5.459-.018.877 1.09 1.423 2.435 1.524 3.885.232 3.403.571 6.809 1.011 10.215.348 2.691 2.196 4.97 4.78 5.798 1.876.599 3.754 1.051 5.63 1.353-1.084-1.131-1.805-2.628-2.01-4.274zm-3.62-145.272c-2.584.828-4.432 3.107-4.78 5.798-.44 3.406-.779 6.812-1.011 10.215-.101 1.451-.648 2.795-1.524 3.885 1.717.742 3.681.751 5.459-.018.028-.012.055-.024.082-.034 2.486-1.069 4.197-3.485 4.383-6.28.232-3.546.571-7.096 1.011-10.645.205-1.646.926-3.143 2.01-4.273-1.876.301-3.754.753-5.63 1.352z" fill="#5c90b9"/></g><g fill="#dd636e"><path d="m396.747 146.226-.671-2.179c-2.368-7.685 1.618-15.891 9.123-18.779l23.083-8.885c8.268-3.182 17.502 1.303 20.111 9.77l1.668 5.414c2.609 8.467-2.498 17.372-11.123 19.396l-24.08 5.65c-7.828 1.836-15.743-2.702-18.111-10.387z"/><path d="m368.258 92.239-1.671-1.551c-5.893-5.471-6.544-14.571-1.489-20.825l15.548-19.236c5.569-6.89 15.809-7.622 22.302-1.595l4.152 3.855c6.493 6.028 6.523 16.294.065 22.359l-18.029 16.933c-5.862 5.505-14.985 5.531-20.878.06z"/><path d="m312.858 66.791-2.223-.508c-7.839-1.791-12.953-9.347-11.702-17.29l3.847-24.433c1.378-8.752 9.88-14.506 18.517-12.532l5.523 1.262c8.637 1.974 13.796 10.849 11.235 19.331l-7.147 23.679c-2.323 7.698-10.211 12.283-18.05 10.491z"/></g></g></svg>