<svg id="Capa_1" enable-background="new 0 0 512 512" height="512" viewBox="0 0 512 512" width="512" xmlns="http://www.w3.org/2000/svg"><g><g><path d="m442.244 374.692c-4.267 0-7.726-3.459-7.726-7.726v-215.675c0-4.267 3.459-7.726 7.726-7.726s7.726 3.459 7.726 7.726v215.675c0 4.267-3.459 7.726-7.726 7.726z" fill="#4d66d2"/></g><g><path d="m379.884 440.841h-247.932c-4.267 0-7.726-3.459-7.726-7.726s3.459-7.726 7.726-7.726h247.933c4.267 0 7.726 3.459 7.726 7.726s-3.459 7.726-7.727 7.726z" fill="#4d66d2"/></g><g><path d="m69.756 374.692c-4.267 0-7.726-3.459-7.726-7.726v-215.675c0-4.267 3.459-7.726 7.726-7.726s7.726 3.459 7.726 7.726v215.675c.001 4.267-3.459 7.726-7.726 7.726z" fill="#4d66d2"/></g><g><path d="m379.884 86.612h-247.932c-4.267 0-7.726-3.459-7.726-7.726s3.459-7.726 7.726-7.726h247.933c4.267 0 7.726 3.459 7.726 7.726s-3.459 7.726-7.727 7.726z" fill="#4d66d2"/></g><g><path d="m212.655 197.156c-4.267 0-7.726-3.459-7.726-7.726v-76.277c0-4.267 3.459-7.726 7.726-7.726s7.726 3.459 7.726 7.726v76.277c0 4.267-3.459 7.726-7.726 7.726z" fill="#ffeb7e"/></g><g><path d="m255.999 197.156c-4.267 0-7.726-3.459-7.726-7.726v-76.277c0-4.267 3.459-7.726 7.726-7.726s7.726 3.459 7.726 7.726v76.277c.001 4.267-3.458 7.726-7.726 7.726z" fill="#ffeb7e"/></g><g><path d="m299.344 197.156c-4.267 0-7.726-3.459-7.726-7.726v-76.277c0-4.267 3.459-7.726 7.726-7.726s7.726 3.459 7.726 7.726v76.277c0 4.267-3.459 7.726-7.726 7.726z" fill="#ffeb7e"/></g><g><path d="m212.655 406.574c-4.267 0-7.726-3.459-7.726-7.726v-73.432c0-4.267 3.459-7.726 7.726-7.726s7.726 3.459 7.726 7.726v73.432c.001 4.267-3.458 7.726-7.726 7.726z" fill="#ffeb7e"/></g><g><path d="m256 406.574c-4.267 0-7.726-3.459-7.726-7.726v-73.432c0-4.267 3.459-7.726 7.726-7.726s7.726 3.459 7.726 7.726v73.432c0 4.267-3.459 7.726-7.726 7.726z" fill="#ffeb7e"/></g><g><path d="m299.344 406.574c-4.267 0-7.726-3.459-7.726-7.726v-73.432c0-4.267 3.459-7.726 7.726-7.726s7.726 3.459 7.726 7.726v73.432c0 4.267-3.459 7.726-7.726 7.726z" fill="#ffeb7e"/></g><g><path d="m182.775 307.072h-69.622c-4.267 0-7.726-3.459-7.726-7.726s3.459-7.726 7.726-7.726h69.622c4.267 0 7.726 3.459 7.726 7.726s-3.459 7.726-7.726 7.726z" fill="#ffeb7e"/></g><g><path d="m182.775 263.727h-69.622c-4.267 0-7.726-3.459-7.726-7.726s3.459-7.726 7.726-7.726h69.622c4.267 0 7.726 3.459 7.726 7.726s-3.459 7.726-7.726 7.726z" fill="#ffeb7e"/></g><g><path d="m182.775 220.383h-69.622c-4.267 0-7.726-3.459-7.726-7.726s3.459-7.726 7.726-7.726h69.622c4.267 0 7.726 3.459 7.726 7.726 0 4.266-3.459 7.726-7.726 7.726z" fill="#ffeb7e"/></g><g><path d="m398.847 307.071h-71.502c-4.267 0-7.726-3.459-7.726-7.726s3.459-7.726 7.726-7.726h71.502c4.267 0 7.726 3.459 7.726 7.726s-3.459 7.726-7.726 7.726z" fill="#ffeb7e"/></g><g><path d="m398.847 263.727h-71.502c-4.267 0-7.726-3.459-7.726-7.726s3.459-7.726 7.726-7.726h71.502c4.267 0 7.726 3.459 7.726 7.726 0 4.266-3.459 7.726-7.726 7.726z" fill="#ffeb7e"/></g><g><path d="m398.847 220.382h-71.502c-4.267 0-7.726-3.459-7.726-7.726s3.459-7.726 7.726-7.726h71.502c4.267 0 7.726 3.459 7.726 7.726s-3.459 7.726-7.726 7.726z" fill="#ffeb7e"/></g><g><path d="m321.192 178.208h-94.044c-2.693 1.036-5.062 1.963-5.062 1.963l-5.462 8.281v133.909l3.788 7.929 3.7 2.026 4.098 1.649h92.983c6.977 0 12.686-5.709 12.686-12.686v-130.385c-.001-6.977-5.71-12.686-12.687-12.686z" fill="#b5dcff"/><path d="m219.209 321.28v-130.386c0-6.977 5.709-12.686 12.686-12.686h-41.089c-6.977 0-12.686 5.709-12.686 12.686v130.386c0 6.977 5.709 12.686 12.686 12.686h41.089c-6.977 0-12.686-5.709-12.686-12.686z" fill="#60b9fe"/><path d="m292.106 212.566h-33.779c-2.04.803-3.821 1.479-3.821 1.479l-1.982 3.568v77.042l3.403 3.964 3.15.988h33.03c4.095 0 7.414-3.319 7.414-7.414v-72.213c-.001-4.094-3.32-7.414-7.415-7.414z" fill="#1ca8ff"/><path d="m253.567 292.194v-72.214c0-4.095 3.319-7.414 7.414-7.414h-41.089c-4.095 0-7.414 3.319-7.414 7.414v72.214c0 4.095 3.319 7.414 7.414 7.414h41.089c-4.095 0-7.414-3.319-7.414-7.414z" fill="#0094fd"/></g><path d="m507.708 392.793-68.164 36.462v76.578l2.701 6.167c1.959 0 3.918-.507 5.673-1.522l58.419-33.768c3.506-2.026 5.664-5.767 5.664-9.815v-74.102z" fill="#0094fd"/><path d="m377.045 392.793h-4.557v74.102c0 4.048 2.158 7.789 5.664 9.815l58.419 33.768c1.755 1.015 3.714 1.522 5.673 1.522v-78.885-4.203z" fill="#0084fd"/><path d="m447.917 355.751c-3.51-2.029-7.837-2.029-11.347 0l-64.083 37.042 69.756 40.322 69.757-40.322z" fill="#60b9fe"/><path d="m135.22 392.793-68.164 36.462v76.578l2.7 6.167c1.959 0 3.918-.507 5.673-1.522l58.419-33.768c3.506-2.026 5.664-5.767 5.664-9.815v-74.102z" fill="#0094fd"/><path d="m4.557 392.793h-4.557v74.102c0 4.048 2.158 7.789 5.664 9.815l58.419 33.768c1.755 1.015 3.714 1.522 5.673 1.522v-78.885-4.203z" fill="#0084fd"/><path d="m75.429 355.751c-3.51-2.029-7.837-2.029-11.347 0l-64.082 37.042 69.756 40.322 69.756-40.322z" fill="#1ca8ff"/><path d="m507.708 38.564-68.164 36.462v76.578l2.701 6.167c1.959 0 3.918-.507 5.673-1.522l58.419-33.768c3.506-2.026 5.664-5.767 5.664-9.815v-74.102z" fill="#0094fd"/><path d="m377.045 38.564h-4.557v74.102c0 4.048 2.158 7.789 5.664 9.815l58.419 33.768c1.755 1.015 3.714 1.522 5.673 1.522v-78.885-4.203z" fill="#0084fd"/><path d="m447.917 1.522c-3.51-2.029-7.837-2.029-11.347 0l-64.083 37.042 69.756 40.322 69.757-40.322z" fill="#60b9fe"/><path d="m135.22 38.564-68.165 36.462v76.578l2.701 6.167c1.959 0 3.918-.507 5.673-1.522l58.419-33.768c3.506-2.026 5.664-5.767 5.664-9.815v-74.102z" fill="#0094fd"/><path d="m4.557 38.564h-4.557v74.102c0 4.048 2.158 7.789 5.664 9.815l58.419 33.768c1.755 1.015 3.714 1.522 5.673 1.522v-78.885-4.203z" fill="#0084fd"/><path d="m75.429 1.522c-3.51-2.029-7.837-2.029-11.347 0l-64.082 37.042 69.756 40.322 69.756-40.322z" fill="#60b9fe"/></g></svg>