<svg id="Icons" height="512" viewBox="0 0 60 60" width="512" xmlns="http://www.w3.org/2000/svg"><path d="m41 26v-23a2.006 2.006 0 0 0 -2-2h-26.76a3.015 3.015 0 0 0 -2.12.88l-8.24 8.24a3.015 3.015 0 0 0 -.88 2.12v40.76a2.006 2.006 0 0 0 2 2h29z" fill="#e1eeff"/><path d="m11 1.28v7.72a2.006 2.006 0 0 1 -2 2h-7.72a2.869 2.869 0 0 1 .6-.88l8.24-8.24a2.869 2.869 0 0 1 .88-.6z" fill="#9fbace"/><circle cx="42" cy="42" fill="#1584e8" r="17"/><path d="m51.79 42.25-8.89-12.77a1.084 1.084 0 0 0 -1.8 0l-8.89 12.77a1.072 1.072 0 0 0 -.2.75 1.113 1.113 0 0 0 .25.64l8.89 10.95a1.086 1.086 0 0 0 1.7 0l8.89-10.95a1.113 1.113 0 0 0 .25-.64 1.072 1.072 0 0 0 -.2-.75z" fill="#fff"/><path d="m51.99 43a1.113 1.113 0 0 1 -.25.64l-8.89 10.95a1.089 1.089 0 0 1 -.85.41v-8z" fill="#e1eeff"/><path d="m51.99 43-9.99-4v-10a1.086 1.086 0 0 1 .9.48l8.89 12.77a1.072 1.072 0 0 1 .2.75z" fill="#e1eeff"/><path d="m42 39v8l-9.99-4z" fill="#c0daf0"/><path d="m51.99 43-9.99 4v-8z" fill="#b1cbdd"/><path d="m22 51a6.263 6.263 0 0 1 -5-2.1 6.263 6.263 0 0 1 -5 2.1 3.579 3.579 0 0 1 -1-.155 3.579 3.579 0 0 1 -1 .155 5.306 5.306 0 0 1 -3.707-1.293 1 1 0 0 1 1.414-1.414 2.487 2.487 0 0 0 .68.4 3.8 3.8 0 0 1 -.387-1.693 3 3 0 0 1 6 0 3.778 3.778 0 0 1 -.437 1.792 3.7 3.7 0 0 0 2.489-2.108 1 1 0 0 1 1.9 0c.027.086.86 2.316 4.048 2.316a1 1 0 0 1 0 2zm-11-5a1 1 0 0 0 -1 1 1.925 1.925 0 0 0 1 1.671 1.925 1.925 0 0 0 1-1.671 1 1 0 0 0 -1-1z" fill="#09558e"/><g fill="#b1cbdd"><path d="m21 41h-15a1 1 0 0 1 0-2h15a1 1 0 0 1 0 2z"/><path d="m22 35h-16a1 1 0 0 1 0-2h16a1 1 0 0 1 0 2z"/><path d="m26 29h-20a1 1 0 0 1 0-2h20a1 1 0 0 1 0 2z"/><path d="m36 23h-30a1 1 0 0 1 0-2h30a1 1 0 0 1 0 2z"/><path d="m36 17h-30a1 1 0 0 1 0-2h30a1 1 0 0 1 0 2z"/></g></svg>