<svg height="512" viewBox="0 0 58 58" width="512" xmlns="http://www.w3.org/2000/svg"><g id="013---Laptop-Algorithm" fill="none"><path id="Path" d="m46 9h7.15c1.0615197.04494901 1.8877777.93820093 1.85 2v35h-17c-.5522847 0-1 .4477153-1 1v1c0 .5522847-.4477153 1-1 1h-14c-.5522847 0-1-.4477153-1-1v-1c0-.5522847-.4477153-1-1-1h-17v-35c.0032948-1.10320187.89679813-1.9967052 2-2z" fill="#aab2bf"/><path id="Path" d="m46 13h4c.5522847 0 1 .4477153 1 1v26c0 .5522847-.4477153 1-1 1h-42c-.55228475 0-1-.4477153-1-1v-26c0-.5522847.44771525-1 1-1z" fill="#0970de"/><path id="Path" d="m55 53-3.1 3.874c-.5691668.7115116-1.4308471 1.1257951-2.342 1.126h-41.116c-.91115287-.0002049-1.77283318-.4144884-2.342-1.126l-3.1-3.874v-1h52z" fill="#aab2bf"/><path id="Path" d="m58 47v4c-.0032948 1.1032019-.8967981 1.9967052-2 2h-54c-1.10320187-.0032948-1.9967052-.8967981-2-2v-4c.0032948-1.1032019.89679813-1.9967052 2-2h18c.5522847 0 1 .4477153 1 1v1c0 .5522847.4477153 1 1 1h14c.5522847 0 1-.4477153 1-1v-1c0-.5522847.4477153-1 1-1h18c1.1032019.0032948 1.9967052.8967981 2 2z" fill="#ced2dc"/><path id="Path" d="m47 8v26c-.0032948 1.1032019-.8967981 1.9967052-2 2h-32c-1.1032019-.0032948-1.9967052-.8967981-2-2v-26l1-1h34z" fill="#d8dde5"/><path id="Path" d="m47 2v6h-36v-6c.0032948-1.10320187.8967981-1.9967052 2-2h32c1.1032019.0032948 1.9967052.89679813 2 2z" fill="#0970de"/><g fill="#4d8aab"><rect id="Rectangle" height="4" rx="1" width="4" x="27" y="12"/><rect id="Rectangle" height="4" rx="1" width="4" x="27" y="28"/><rect id="Rectangle" height="4" rx="1" width="4" x="17" y="28"/><path id="Path" d="m31.29 21.71-.29.29-1.29 1.29c-.3930079.3899779-1.0269921.3899779-1.42 0l-1.29-1.29-.29-.29c-.3899779-.3930079-.3899779-1.0269921 0-1.42l1.29-1.29.29-.29c.3930079-.3899779 1.0269921-.3899779 1.42 0l.29.29 1.29 1.29c.3899779.3930079.3899779 1.0269921 0 1.42z"/><rect id="Rectangle" height="4" rx="1" width="4" x="37" y="28"/></g><path id="Path" d="m5 50h-1c-.55228475 0-1-.4477153-1-1s.44771525-1 1-1h1c.55228475 0 1 .4477153 1 1s-.44771525 1-1 1z" fill="#439cf8"/><path id="Path" d="m10 50h-1c-.55228475 0-1-.4477153-1-1s.44771525-1 1-1h1c.5522847 0 1 .4477153 1 1s-.4477153 1-1 1z" fill="#439cf8"/><path id="Path" d="m16 5h-1c-.5522847 0-1-.44771525-1-1s.4477153-1 1-1h1c.5522847 0 1 .44771525 1 1s-.4477153 1-1 1z" fill="#f289ca"/><path id="Path" d="m21 5h-1c-.5522847 0-1-.44771525-1-1s.4477153-1 1-1h1c.5522847 0 1 .44771525 1 1s-.4477153 1-1 1z" fill="#abde62"/><path id="Path" d="m43 5h-4c-.5522847 0-1-.44771525-1-1s.4477153-1 1-1h4c.5522847 0 1 .44771525 1 1s-.4477153 1-1 1z" fill="#0462b7"/><path id="Path" d="m30 23v5h-2v-5l.29.29c.3930079.3899779 1.0269921.3899779 1.42 0z" fill="#295474"/><path id="Path" d="m26.71 21.71.29.29h-6c-.5522847 0-1 .4477153-1 1v5h-2v-5c.0049422-1.6548028 1.3451972-2.9950578 3-3h6l-.29.29c-.3899779.3930079-.3899779 1.0269921 0 1.42z" fill="#295474"/><path id="Path" d="m40 23v5h-2v-5c0-.5522847-.4477153-1-1-1h-6l.29-.29c.3899779-.3930079.3899779-1.0269921 0-1.42l-.29-.29h6c1.6548028.0049422 2.9950578 1.3451972 3 3z" fill="#295474"/><path id="Path" d="m30 16v3l-.29-.29c-.3930079-.3899779-1.0269921-.3899779-1.42 0l-.29.29v-3z" fill="#295474"/></g></svg>