<?xml version="1.0" encoding="UTF-8" standalone="no"?>
<svg
   id="Capa_1"
   enable-background="new 0 0 512 512"
   height="512"
   viewBox="0 0 512 512"
   width="512"
   version="1.1"
   sodipodi:docname="system-v2.svg"
   inkscape:version="1.2 (dc2aeda, 2022-05-15)"
   xmlns:inkscape="http://www.inkscape.org/namespaces/inkscape"
   xmlns:sodipodi="http://sodipodi.sourceforge.net/DTD/sodipodi-0.dtd"
   xmlns="http://www.w3.org/2000/svg"
   xmlns:svg="http://www.w3.org/2000/svg">
  <defs
     id="defs428" />
  <sodipodi:namedview
     id="namedview426"
     pagecolor="#ffffff"
     bordercolor="#000000"
     borderopacity="0.25"
     inkscape:showpageshadow="2"
     inkscape:pageopacity="0.0"
     inkscape:pagecheckerboard="0"
     inkscape:deskcolor="#d1d1d1"
     showgrid="false"
     inkscape:zoom="1.2111966"
     inkscape:cx="181.22574"
     inkscape:cy="259.66058"
     inkscape:window-width="1869"
     inkscape:window-height="1027"
     inkscape:window-x="51"
     inkscape:window-y="25"
     inkscape:window-maximized="1"
     inkscape:current-layer="Capa_1" />
  <g
     id="g423">
    <path
       d="m412.535 381.234v-37.818h-313.07v37.818c0 7.128-2.462 14.037-6.969 19.559l-63.294 77.548h453.595l-63.294-77.548c-4.506-5.522-6.968-12.431-6.968-19.559z"
       fill="#eeecee"
       id="path387"
       style="fill:#cfc9cf;fill-opacity:1" />
    <path
       d="m419.504 400.793c-4.507-5.522-6.969-12.431-6.969-19.559v-37.818h-313.07v37.818c0 2.663-.345 5.296-1.011 7.837h260.029c9.281 0 17.896 4.403 23.734 11.618.028.035 63.378 77.652 63.378 77.652h37.203z"
       fill="#e5e1e5"
       id="path389"
       style="fill:#a092a0;fill-opacity:1" />
    <path
       d="m465.962 358.166h-412.262c-9.245 0-16.74-7.495-16.74-16.74v-324.686c-.001-9.245 7.494-16.74 16.74-16.74h412.262c9.245 0 16.74 7.495 16.74 16.74v324.685c0 9.246-7.495 16.741-16.74 16.741z"
       fill="#eeecee"
       id="path391"
       style="fill:#c3bbc3;fill-opacity:1" />
    <path
       d="m464.688 0h-38.011c9.949 0 18.014 8.065 18.014 18.014v322.138c0 9.948-8.065 18.014-18.014 18.014h38.011c9.949 0 18.014-8.065 18.014-18.014v-322.138c0-9.949-8.065-18.014-18.014-18.014z"
       fill="#e5e1e5"
       id="path393"
       style="fill:#a092a0;fill-opacity:1" />
    <path
       d="m72.817 309.055v-259.944c0-7.279 5.901-13.18 13.18-13.18h347.667c7.279 0 13.18 5.901 13.18 13.18v259.944c0 7.279-5.901 13.18-13.18 13.18h-347.667c-7.279 0-13.18-5.901-13.18-13.18z"
       fill="#766e6e"
       id="path395" />
    <path
       d="m288.431 260.935c-48.691 7.466-105.465 7.466-154.156 0-8.371-1.284-14.963-7.824-16.419-16.167-7.645-43.79-7.645-87.58 0-131.369 1.457-8.343 8.048-14.884 16.419-16.167 48.691-7.466 105.465-7.466 154.156 0 8.372 1.284 14.963 7.824 16.419 16.167 7.644 43.79 7.644 87.579 0 131.369-1.456 8.343-8.047 14.883-16.419 16.167z"
       fill="#5de1c4"
       id="path397" />
    <path
       d="m381.259 240.027c-9.654 0-17.48 7.826-17.48 17.48s7.826 17.48 17.48 17.48 17.48-7.826 17.48-17.48-7.826-17.48-17.48-17.48z"
       fill="#eeecee"
       id="path399" />
    <path
       d="m381.259 170.898c-9.654 0-17.48 7.826-17.48 17.48s7.826 17.48 17.48 17.48 17.48-7.826 17.48-17.48-7.826-17.48-17.48-17.48z"
       fill="#eeecee"
       id="path401" />
    <path
       d="m381.259 138.941c-4.268 0-7.726-3.459-7.726-7.726v-48.036c0-4.267 3.459-7.726 7.726-7.726s7.726 3.459 7.726 7.726v48.036c0 4.266-3.459 7.726-7.726 7.726z"
       fill="#fdb441"
       id="path403" />
    <g
       fill="#766e6e"
       id="g417">
      <path
         d="m26.987 440.801v29.145h47.513v-29.145c0-5.279-4.28-9.559-9.559-9.559h-28.395c-5.279 0-9.559 4.28-9.559 9.559z"
         id="path405" />
      <path
         d="m109.09 440.801v29.145h47.513v-29.145c0-5.279-4.28-9.559-9.559-9.559h-28.395c-5.28 0-9.559 4.28-9.559 9.559z"
         id="path407" />
      <path
         d="m191.192 440.801v29.145h47.513v-29.145c0-5.279-4.28-9.559-9.559-9.559h-28.395c-5.279 0-9.559 4.28-9.559 9.559z"
         id="path409" />
      <path
         d="m273.295 440.801v29.145h47.513v-29.145c0-5.279-4.28-9.559-9.559-9.559h-28.395c-5.279 0-9.559 4.28-9.559 9.559z"
         id="path411" />
      <path
         d="m355.398 440.801v29.145h47.513v-29.145c0-5.279-4.28-9.559-9.559-9.559h-28.395c-5.28 0-9.559 4.28-9.559 9.559z"
         id="path413" />
      <path
         d="m437.5 440.801v29.145h47.513v-29.145c0-5.279-4.28-9.559-9.559-9.559h-28.395c-5.279 0-9.559 4.28-9.559 9.559z"
         id="path415" />
    </g>
    <path
       d="m3.033 471.84v29.831c0 5.704 4.624 10.329 10.329 10.329h485.278c5.704 0 10.329-4.624 10.329-10.329v-29.831c0-5.704-4.624-10.329-10.329-10.329h-485.279c-5.704.001-10.328 4.625-10.328 10.329z"
       fill="#e5e1e5"
       id="path419"
       style="fill:#c4bbc4;fill-opacity:1" />
    <path
       d="m498.639 461.512h-32.758c5.704 0 10.329 4.624 10.329 10.329v29.831c0 5.704-4.624 10.329-10.329 10.329h32.758c5.704 0 10.329-4.624 10.329-10.329v-29.832c-.001-5.704-4.625-10.328-10.329-10.328z"
       fill="#d7d0d6"
       id="path421"
       style="fill:#a1919f;fill-opacity:1" />
  </g>
</svg>
