<?xml version="1.0" encoding="UTF-8" standalone="no"?>
<!-- Created with Inkscape (http://www.inkscape.org/) -->

<svg
   width="512mm"
   height="512mm"
   viewBox="0 0 512 512"
   version="1.1"
   id="svg5"
   xml:space="preserve"
   inkscape:version="1.2 (dc2aeda, 2022-05-15)"
   sodipodi:docname="gs.svg"
   xmlns:inkscape="http://www.inkscape.org/namespaces/inkscape"
   xmlns:sodipodi="http://sodipodi.sourceforge.net/DTD/sodipodi-0.dtd"
   xmlns:xlink="http://www.w3.org/1999/xlink"
   xmlns="http://www.w3.org/2000/svg"
   xmlns:svg="http://www.w3.org/2000/svg"><sodipodi:namedview
     id="namedview7"
     pagecolor="#ffffff"
     bordercolor="#000000"
     borderopacity="0.25"
     inkscape:showpageshadow="false"
     inkscape:pageopacity="0.0"
     inkscape:pagecheckerboard="true"
     inkscape:deskcolor="#d1d1d1"
     inkscape:document-units="mm"
     showgrid="false"
     inkscape:lockguides="true"
     inkscape:zoom="0.19531952"
     inkscape:cx="895.96782"
     inkscape:cy="1482.1868"
     inkscape:window-width="1869"
     inkscape:window-height="1027"
     inkscape:window-x="50"
     inkscape:window-y="25"
     inkscape:window-maximized="0"
     inkscape:current-layer="layer1"
     showborder="true"
     shape-rendering="auto"
     borderlayer="true" /><defs
     id="defs2"><linearGradient
       inkscape:collect="always"
       id="linearGradient3969"><stop
         style="stop-color:#616173;stop-opacity:1;"
         offset="0"
         id="stop3965" /><stop
         style="stop-color:#26262b;stop-opacity:1;"
         offset="1"
         id="stop3967" /></linearGradient><linearGradient
       inkscape:collect="always"
       id="linearGradient871"><stop
         style="stop-color:#bdb8b5;stop-opacity:1;"
         offset="0"
         id="stop867" /><stop
         style="stop-color:#faf9f9;stop-opacity:1;"
         offset="1"
         id="stop869" /></linearGradient><linearGradient
       inkscape:collect="always"
       xlink:href="#linearGradient871"
       id="linearGradient873"
       x1="270.1532"
       y1="353.5325"
       x2="270.97107"
       y2="159.14481"
       gradientUnits="userSpaceOnUse" /><radialGradient
       inkscape:collect="always"
       xlink:href="#linearGradient3969"
       id="radialGradient3971"
       cx="256"
       cy="256"
       fx="256"
       fy="256"
       r="256"
       gradientUnits="userSpaceOnUse" /></defs><g
     inkscape:label="Layer 1"
     inkscape:groupmode="layer"
     id="layer1"><circle
       style="fill:url(#radialGradient3971);stroke-width:0.270933;-inkscape-stroke:none;stop-color:#000000;fill-opacity:1"
       id="path7393"
       cx="256"
       cy="256"
       r="256" /><path
       style="fill:url(#linearGradient873);stroke-width:0.872858;fill-opacity:1"
       d="m 170.4833,352.84899 c -4.80069,-0.384 -11.47805,-1.29096 -14.83857,-2.01549 -3.3605,-0.72451 -9.16882,-2.32112 -12.90738,-3.54804 -3.73855,-1.22691 -8.84478,-3.26264 -11.34715,-4.52387 -2.50238,-1.26123 -7.29927,-4.0552 -10.65979,-6.20878 -3.36049,-2.15359 -9.25228,-7.13858 -13.09284,-11.07776 -4.06368,-4.16796 -8.669261,-10.05548 -11.01677,-14.08326 -2.218654,-3.80668 -5.228103,-10.06349 -6.687659,-13.90406 -1.459556,-3.84057 -3.303683,-10.12515 -4.098114,-13.96571 -0.794404,-3.8406 -1.806865,-11.40171 -2.249952,-16.80254 -0.492202,-5.9997 -0.492202,-13.63958 0,-19.6393 0.443087,-5.4008 1.450723,-12.93112 2.239189,-16.73402 0.788492,-3.80294 2.714789,-10.49896 4.280663,-14.8801 1.565875,-4.38112 4.445542,-10.69652 6.399259,-14.0342 1.953716,-3.33768 5.847124,-8.78995 8.652054,-12.11618 2.80495,-3.32623 7.84939,-8.16285 11.20988,-10.74809 3.36052,-2.58522 10.43066,-6.80822 15.71144,-9.38443 5.28081,-2.57623 12.74374,-5.52624 16.58431,-6.55563 3.84057,-1.02936 11.10712,-2.42393 16.14787,-3.09906 6.80714,-0.91169 20.22457,-1.23187 52.15326,-1.24455 l 42.98825,-0.0173 v 21.385 21.38504 l -36.87826,0.0123 c -32.78622,0.009 -37.76894,0.19522 -44.90545,1.66803 -4.41497,0.91109 -10.66062,2.95295 -13.87921,4.53749 -3.2186,1.5845 -7.96591,4.81292 -10.54958,7.17424 -2.58366,2.36132 -6.22703,6.89347 -8.0964,10.0714 -1.86933,3.17797 -4.30602,8.72401 -5.4148,12.32456 -1.6793,5.45316 -2.01799,8.51431 -2.02797,18.33 -0.007,6.99585 0.46759,13.73413 1.16839,16.58431 0.64921,2.64039 2.68963,7.97313 4.53423,11.85051 2.66359,5.5989 4.64601,8.2688 9.63221,12.9725 4.36829,4.12083 8.43259,6.95243 13.35934,9.30741 3.89455,1.86161 10.22328,4.19289 14.06387,5.18062 3.84057,0.98775 11.00316,2.03254 15.91686,2.32181 l 8.93396,0.52591 0.2311,-26.80355 0.23109,-26.80356 26.62216,0.0337 26.62218,0.0339 v 46.49651 46.49655 l -40.15146,0.0983 c -22.08331,0.0539 -44.07933,-0.21601 -48.88005,-0.59991 z m 110.80799,-0.17369 c -0.23455,-0.61145 -0.32049,-9.74374 -0.19076,-20.29395 l 0.2358,-19.18222 32.73215,-0.43644 32.73218,-0.43643 5.03845,-2.55154 c 2.77116,-1.40336 6.57689,-3.86838 8.45717,-5.47785 1.88029,-1.60944 4.52281,-5.1747 5.87227,-7.92274 2.04756,-4.16964 2.44643,-6.07973 2.4104,-11.54289 -0.0364,-5.51292 -0.4781,-7.44216 -2.79825,-12.22002 -1.51529,-3.12046 -4.68205,-8.03028 -7.03727,-10.91072 -2.35522,-2.88041 -7.38058,-7.83531 -11.16749,-11.01085 -3.7869,-3.17556 -13.75904,-10.77471 -22.16028,-16.88701 -8.40127,-6.11229 -17.93811,-13.72655 -21.19301,-16.92057 -3.2549,-3.19403 -6.66727,-7.37847 -7.58306,-9.29875 -1.48036,-3.10409 -1.69533,-6.0091 -1.93773,-26.18574 l -0.27266,-22.6943 26.30247,-0.23084 26.30246,-0.23084 0.36956,11.57802 c 0.31373,9.82922 0.66411,12.14381 2.31984,15.32387 1.07265,2.06023 3.46046,5.25604 5.30625,7.10183 1.84578,1.84578 10.26068,8.50795 18.6998,14.80485 8.4391,6.29689 19.14381,15.08105 23.78824,19.52033 4.64445,4.43932 10.88135,11.21375 13.85982,15.05432 2.97847,3.84059 7.04269,9.74644 9.03158,13.12414 1.98892,3.3777 4.67714,9.0731 5.97385,12.65646 2.09401,5.78653 2.36226,7.78416 2.39883,17.8623 0.0339,9.31913 -0.31756,12.59515 -1.9661,18.33001 -1.10401,3.84059 -3.84762,10.48599 -6.09691,14.76756 -2.75132,5.23728 -6.21486,10.04789 -10.58416,14.70081 -3.57202,3.80386 -8.8059,8.48572 -11.63086,10.4041 -2.82495,1.91838 -7.36531,4.47987 -10.08973,5.69215 -2.72439,1.21227 -7.89934,2.73508 -11.49988,3.384 -4.92023,0.88674 -17.55711,1.18738 -50.87136,1.21027 -35.11612,0.0248 -44.41357,-0.20041 -44.75156,-1.08127 z"
       id="path7337" /></g></svg>
